<svg xmlns="http://www.w3.org/2000/svg" xmlns:xlink="http://www.w3.org/1999/xlink" width="500" zoomAndPan="magnify" viewBox="0 0 375 374.999991" height="500" preserveAspectRatio="xMidYMid meet" version="1.0"><defs><g/><clipPath id="322702c06b"><rect x="0" width="249" y="0" height="223"/></clipPath><clipPath id="7c6124d98f"><path d="M 58.445312 69.613281 L 124.644531 69.613281 L 124.644531 135.808594 L 58.445312 135.808594 Z M 58.445312 69.613281 " clip-rule="nonzero"/></clipPath><clipPath id="575ca375ad"><path d="M 91.546875 69.613281 L 102.078125 92.179688 L 124.644531 102.710938 L 102.078125 113.242188 L 91.546875 135.808594 L 81.011719 113.242188 L 58.445312 102.710938 L 81.011719 92.179688 Z M 91.546875 69.613281 " clip-rule="nonzero"/></clipPath><clipPath id="81d690eb9a"><path d="M 0.445312 0.613281 L 66.644531 0.613281 L 66.644531 66.808594 L 0.445312 66.808594 Z M 0.445312 0.613281 " clip-rule="nonzero"/></clipPath><clipPath id="c43db609ef"><path d="M 33.546875 0.613281 L 44.078125 23.179688 L 66.644531 33.710938 L 44.078125 44.242188 L 33.546875 66.808594 L 23.011719 44.242188 L 0.445312 33.710938 L 23.011719 23.179688 Z M 33.546875 0.613281 " clip-rule="nonzero"/></clipPath><clipPath id="c2508c5c44"><rect x="0" width="67" y="0" height="67"/></clipPath><clipPath id="e8a2f3fd0c"><path d="M 150.492188 79.460938 L 196.996094 79.460938 L 196.996094 125.964844 L 150.492188 125.964844 Z M 150.492188 79.460938 " clip-rule="nonzero"/></clipPath><clipPath id="dfb1287df6"><path d="M 173.746094 79.460938 L 181.144531 95.3125 L 196.996094 102.710938 L 181.144531 110.109375 L 173.746094 125.964844 L 166.347656 110.109375 L 150.492188 102.710938 L 166.347656 95.3125 Z M 173.746094 79.460938 " clip-rule="nonzero"/></clipPath><clipPath id="88f5fb267e"><path d="M 0.492188 0.460938 L 46.996094 0.460938 L 46.996094 46.964844 L 0.492188 46.964844 Z M 0.492188 0.460938 " clip-rule="nonzero"/></clipPath><clipPath id="0e8c085f22"><path d="M 23.746094 0.460938 L 31.144531 16.3125 L 46.996094 23.710938 L 31.144531 31.109375 L 23.746094 46.964844 L 16.347656 31.109375 L 0.492188 23.710938 L 16.347656 16.3125 Z M 23.746094 0.460938 " clip-rule="nonzero"/></clipPath><clipPath id="8661be8ae6"><rect x="0" width="47" y="0" height="47"/></clipPath><clipPath id="17e332c479"><path d="M 157.511719 155.03125 L 189.980469 155.03125 L 189.980469 187.5 L 157.511719 187.5 Z M 157.511719 155.03125 " clip-rule="nonzero"/></clipPath><clipPath id="df9f312867"><path d="M 173.746094 155.03125 L 178.910156 166.097656 L 189.980469 171.265625 L 178.910156 176.429688 L 173.746094 187.5 L 168.578125 176.429688 L 157.511719 171.265625 L 168.578125 166.097656 Z M 173.746094 155.03125 " clip-rule="nonzero"/></clipPath><clipPath id="cc9c274ef1"><path d="M 0.511719 0.03125 L 32.980469 0.03125 L 32.980469 32.5 L 0.511719 32.5 Z M 0.511719 0.03125 " clip-rule="nonzero"/></clipPath><clipPath id="d819e065e1"><path d="M 16.746094 0.03125 L 21.910156 11.097656 L 32.980469 16.265625 L 21.910156 21.429688 L 16.746094 32.5 L 11.578125 21.429688 L 0.511719 16.265625 L 11.578125 11.097656 Z M 16.746094 0.03125 " clip-rule="nonzero"/></clipPath><clipPath id="aca8aa8139"><rect x="0" width="33" y="0" height="33"/></clipPath></defs><rect x="-37.5" width="450" fill="#ffffff" y="-37.499999" height="449.999989" fill-opacity="1"/><rect x="-37.5" width="450" fill="#7761f0" y="-37.499999" height="449.999989" fill-opacity="1"/><g transform="matrix(1, 0, 0, 1, 62, 146)"><g clip-path="url(#322702c06b)"><g fill="#322f30" fill-opacity="0.4"><g transform="translate(1.297004, 160.140333)"><g><path d="M 44.03125 -146.484375 L 44.03125 0 L 10.65625 0 L 10.65625 -146.484375 Z M 44.03125 -146.484375 "/></g></g></g><g fill="#322f30" fill-opacity="0.4"><g transform="translate(50.47636, 160.140333)"><g><path d="M 10.65625 0 L 10.65625 -91.09375 L 42.078125 -91.09375 L 42.078125 -81.5 L 42.4375 -81.5 C 50.601562 -89.664062 59.304688 -93.75 68.546875 -93.75 C 73.035156 -93.75 77.5 -93.15625 81.9375 -91.96875 C 86.382812 -90.789062 90.648438 -88.957031 94.734375 -86.46875 C 98.816406 -83.988281 102.128906 -80.46875 104.671875 -75.90625 C 107.210938 -71.351562 108.484375 -66.054688 108.484375 -60.015625 L 108.484375 0 L 77.0625 0 L 77.0625 -51.5 C 77.0625 -56.226562 75.550781 -60.367188 72.53125 -63.921875 C 69.507812 -67.472656 65.570312 -69.25 60.71875 -69.25 C 55.988281 -69.25 51.695312 -67.410156 47.84375 -63.734375 C 44 -60.066406 42.078125 -55.988281 42.078125 -51.5 L 42.078125 0 Z M 10.65625 0 "/></g></g></g><g fill="#322f30" fill-opacity="0.4"><g transform="translate(162.329261, 160.140333)"><g><path d="M 50.25 -93.75 C 55.457031 -93.75 60.601562 -93.15625 65.6875 -91.96875 C 70.78125 -90.789062 74.570312 -89.609375 77.0625 -88.421875 L 80.796875 -86.65625 L 70.5 -66.046875 C 63.394531 -69.835938 56.644531 -71.734375 50.25 -71.734375 C 46.695312 -71.734375 44.179688 -71.347656 42.703125 -70.578125 C 41.222656 -69.804688 40.484375 -68.359375 40.484375 -66.234375 C 40.484375 -65.753906 40.539062 -65.273438 40.65625 -64.796875 C 40.78125 -64.328125 41.019531 -63.882812 41.375 -63.46875 C 41.726562 -63.0625 42.050781 -62.707031 42.34375 -62.40625 C 42.644531 -62.113281 43.148438 -61.789062 43.859375 -61.4375 C 44.566406 -61.082031 45.128906 -60.816406 45.546875 -60.640625 C 45.960938 -60.460938 46.640625 -60.195312 47.578125 -59.84375 C 48.523438 -59.488281 49.234375 -59.21875 49.703125 -59.03125 C 50.179688 -58.851562 50.984375 -58.585938 52.109375 -58.234375 C 53.234375 -57.878906 54.09375 -57.644531 54.6875 -57.53125 C 58.351562 -56.46875 61.546875 -55.285156 64.265625 -53.984375 C 66.992188 -52.679688 69.867188 -50.90625 72.890625 -48.65625 C 75.910156 -46.40625 78.25 -43.5625 79.90625 -40.125 C 81.5625 -36.695312 82.390625 -32.789062 82.390625 -28.40625 C 82.390625 -7.695312 68.003906 2.65625 39.234375 2.65625 C 32.722656 2.65625 26.535156 1.648438 20.671875 -0.359375 C 14.816406 -2.367188 10.585938 -4.378906 7.984375 -6.390625 L 4.078125 -9.59375 L 16.875 -31.078125 C 17.8125 -30.242188 19.050781 -29.265625 20.59375 -28.140625 C 22.132812 -27.015625 24.914062 -25.472656 28.9375 -23.515625 C 32.96875 -21.566406 36.460938 -20.59375 39.421875 -20.59375 C 45.929688 -20.59375 49.1875 -22.785156 49.1875 -27.171875 C 49.1875 -29.179688 48.359375 -30.75 46.703125 -31.875 C 45.046875 -33 42.234375 -34.269531 38.265625 -35.6875 C 34.296875 -37.113281 31.1875 -38.414062 28.9375 -39.59375 C 23.257812 -42.550781 18.757812 -45.894531 15.4375 -49.625 C 12.125 -53.351562 10.46875 -58.296875 10.46875 -64.453125 C 10.46875 -73.691406 14.050781 -80.882812 21.21875 -86.03125 C 28.382812 -91.175781 38.0625 -93.75 50.25 -93.75 Z M 50.25 -93.75 "/></g></g></g><g fill="#ffffff" fill-opacity="1"><g transform="translate(1.297004, 160.140333)"><g><path d="M 44.03125 -146.484375 L 44.03125 0 L 10.65625 0 L 10.65625 -146.484375 Z M 44.03125 -146.484375 "/></g></g></g><g fill="#ffffff" fill-opacity="1"><g transform="translate(50.47636, 160.140333)"><g><path d="M 10.65625 0 L 10.65625 -91.09375 L 42.078125 -91.09375 L 42.078125 -81.5 L 42.4375 -81.5 C 50.601562 -89.664062 59.304688 -93.75 68.546875 -93.75 C 73.035156 -93.75 77.5 -93.15625 81.9375 -91.96875 C 86.382812 -90.789062 90.648438 -88.957031 94.734375 -86.46875 C 98.816406 -83.988281 102.128906 -80.46875 104.671875 -75.90625 C 107.210938 -71.351562 108.484375 -66.054688 108.484375 -60.015625 L 108.484375 0 L 77.0625 0 L 77.0625 -51.5 C 77.0625 -56.226562 75.550781 -60.367188 72.53125 -63.921875 C 69.507812 -67.472656 65.570312 -69.25 60.71875 -69.25 C 55.988281 -69.25 51.695312 -67.410156 47.84375 -63.734375 C 44 -60.066406 42.078125 -55.988281 42.078125 -51.5 L 42.078125 0 Z M 10.65625 0 "/></g></g></g><g fill="#ffffff" fill-opacity="1"><g transform="translate(162.329261, 160.140333)"><g><path d="M 50.25 -93.75 C 55.457031 -93.75 60.601562 -93.15625 65.6875 -91.96875 C 70.78125 -90.789062 74.570312 -89.609375 77.0625 -88.421875 L 80.796875 -86.65625 L 70.5 -66.046875 C 63.394531 -69.835938 56.644531 -71.734375 50.25 -71.734375 C 46.695312 -71.734375 44.179688 -71.347656 42.703125 -70.578125 C 41.222656 -69.804688 40.484375 -68.359375 40.484375 -66.234375 C 40.484375 -65.753906 40.539062 -65.273438 40.65625 -64.796875 C 40.78125 -64.328125 41.019531 -63.882812 41.375 -63.46875 C 41.726562 -63.0625 42.050781 -62.707031 42.34375 -62.40625 C 42.644531 -62.113281 43.148438 -61.789062 43.859375 -61.4375 C 44.566406 -61.082031 45.128906 -60.816406 45.546875 -60.640625 C 45.960938 -60.460938 46.640625 -60.195312 47.578125 -59.84375 C 48.523438 -59.488281 49.234375 -59.21875 49.703125 -59.03125 C 50.179688 -58.851562 50.984375 -58.585938 52.109375 -58.234375 C 53.234375 -57.878906 54.09375 -57.644531 54.6875 -57.53125 C 58.351562 -56.46875 61.546875 -55.285156 64.265625 -53.984375 C 66.992188 -52.679688 69.867188 -50.90625 72.890625 -48.65625 C 75.910156 -46.40625 78.25 -43.5625 79.90625 -40.125 C 81.5625 -36.695312 82.390625 -32.789062 82.390625 -28.40625 C 82.390625 -7.695312 68.003906 2.65625 39.234375 2.65625 C 32.722656 2.65625 26.535156 1.648438 20.671875 -0.359375 C 14.816406 -2.367188 10.585938 -4.378906 7.984375 -6.390625 L 4.078125 -9.59375 L 16.875 -31.078125 C 17.8125 -30.242188 19.050781 -29.265625 20.59375 -28.140625 C 22.132812 -27.015625 24.914062 -25.472656 28.9375 -23.515625 C 32.96875 -21.566406 36.460938 -20.59375 39.421875 -20.59375 C 45.929688 -20.59375 49.1875 -22.785156 49.1875 -27.171875 C 49.1875 -29.179688 48.359375 -30.75 46.703125 -31.875 C 45.046875 -33 42.234375 -34.269531 38.265625 -35.6875 C 34.296875 -37.113281 31.1875 -38.414062 28.9375 -39.59375 C 23.257812 -42.550781 18.757812 -45.894531 15.4375 -49.625 C 12.125 -53.351562 10.46875 -58.296875 10.46875 -64.453125 C 10.46875 -73.691406 14.050781 -80.882812 21.21875 -86.03125 C 28.382812 -91.175781 38.0625 -93.75 50.25 -93.75 Z M 50.25 -93.75 "/></g></g></g></g></g><g clip-path="url(#7c6124d98f)"><g clip-path="url(#575ca375ad)"><g transform="matrix(1, 0, 0, 1, 58, 69)"><g clip-path="url(#c2508c5c44)"><g clip-path="url(#81d690eb9a)"><g clip-path="url(#c43db609ef)"><path fill="#ffbd59" d="M 0.445312 0.613281 L 66.644531 0.613281 L 66.644531 66.808594 L 0.445312 66.808594 Z M 0.445312 0.613281 " fill-opacity="1" fill-rule="nonzero"/></g></g></g></g></g></g><g clip-path="url(#e8a2f3fd0c)"><g clip-path="url(#dfb1287df6)"><g transform="matrix(1, 0, 0, 1, 150, 79)"><g clip-path="url(#8661be8ae6)"><g clip-path="url(#88f5fb267e)"><g clip-path="url(#0e8c085f22)"><path fill="#ffbd59" d="M 0.492188 0.460938 L 46.996094 0.460938 L 46.996094 46.964844 L 0.492188 46.964844 Z M 0.492188 0.460938 " fill-opacity="1" fill-rule="nonzero"/></g></g></g></g></g></g><g clip-path="url(#17e332c479)"><g clip-path="url(#df9f312867)"><g transform="matrix(1, 0, 0, 1, 157, 155)"><g clip-path="url(#aca8aa8139)"><g clip-path="url(#cc9c274ef1)"><g clip-path="url(#d819e065e1)"><path fill="#ffbd59" d="M 0.511719 0.03125 L 32.980469 0.03125 L 32.980469 32.5 L 0.511719 32.5 Z M 0.511719 0.03125 " fill-opacity="1" fill-rule="nonzero"/></g></g></g></g></g></g></svg>