<svg xmlns="http://www.w3.org/2000/svg" xmlns:xlink="http://www.w3.org/1999/xlink" width="500" zoomAndPan="magnify" viewBox="0 0 375 149.999998" height="200" preserveAspectRatio="xMidYMid meet" version="1.0"><defs><g/><clipPath id="7880a24912"><path d="M 0.414062 0.441406 L 24.960938 0.441406 L 24.960938 24.988281 L 0.414062 24.988281 Z M 0.414062 0.441406 " clip-rule="nonzero"/></clipPath><clipPath id="5c3442bed5"><path d="M 12.6875 0.441406 L 16.59375 8.808594 L 24.960938 12.714844 L 16.59375 16.621094 L 12.6875 24.988281 L 8.78125 16.621094 L 0.414062 12.714844 L 8.78125 8.808594 Z M 12.6875 0.441406 " clip-rule="nonzero"/></clipPath><clipPath id="d10f5b0c42"><path d="M 0.414062 0.441406 L 24.960938 0.441406 L 24.960938 24.988281 L 0.414062 24.988281 Z M 0.414062 0.441406 " clip-rule="nonzero"/></clipPath><clipPath id="a8105de4db"><path d="M 12.6875 0.441406 L 16.59375 8.808594 L 24.960938 12.714844 L 16.59375 16.621094 L 12.6875 24.988281 L 8.78125 16.621094 L 0.414062 12.714844 L 8.78125 8.808594 Z M 12.6875 0.441406 " clip-rule="nonzero"/></clipPath><clipPath id="723c368c26"><rect x="0" width="25" y="0" height="25"/></clipPath><clipPath id="5832ed9c91"><path d="M 34.546875 4.09375 L 51.792969 4.09375 L 51.792969 21.339844 L 34.546875 21.339844 Z M 34.546875 4.09375 " clip-rule="nonzero"/></clipPath><clipPath id="d4e73cb532"><path d="M 43.171875 4.09375 L 45.914062 9.972656 L 51.792969 12.714844 L 45.914062 15.457031 L 43.171875 21.339844 L 40.429688 15.457031 L 34.546875 12.714844 L 40.429688 9.972656 Z M 43.171875 4.09375 " clip-rule="nonzero"/></clipPath><clipPath id="ec6bebd58a"><path d="M 0.546875 0.09375 L 17.792969 0.09375 L 17.792969 17.339844 L 0.546875 17.339844 Z M 0.546875 0.09375 " clip-rule="nonzero"/></clipPath><clipPath id="a70d78ad2c"><path d="M 9.171875 0.09375 L 11.914062 5.972656 L 17.792969 8.714844 L 11.914062 11.457031 L 9.171875 17.339844 L 6.429688 11.457031 L 0.546875 8.714844 L 6.429688 5.972656 Z M 9.171875 0.09375 " clip-rule="nonzero"/></clipPath><clipPath id="15cbd1e53d"><rect x="0" width="18" y="0" height="18"/></clipPath><clipPath id="7976d47eed"><path d="M 37.152344 32.117188 L 49.191406 32.117188 L 49.191406 44.160156 L 37.152344 44.160156 Z M 37.152344 32.117188 " clip-rule="nonzero"/></clipPath><clipPath id="74b9262c53"><path d="M 43.171875 32.117188 L 45.085938 36.222656 L 49.191406 38.136719 L 45.085938 40.054688 L 43.171875 44.160156 L 41.257812 40.054688 L 37.152344 38.136719 L 41.257812 36.222656 Z M 43.171875 32.117188 " clip-rule="nonzero"/></clipPath><clipPath id="931c50d977"><path d="M 0.152344 0.117188 L 12.191406 0.117188 L 12.191406 12.160156 L 0.152344 12.160156 Z M 0.152344 0.117188 " clip-rule="nonzero"/></clipPath><clipPath id="0a3f0f1e67"><path d="M 6.171875 0.117188 L 8.085938 4.222656 L 12.191406 6.136719 L 8.085938 8.054688 L 6.171875 12.160156 L 4.257812 8.054688 L 0.152344 6.136719 L 4.257812 4.222656 Z M 6.171875 0.117188 " clip-rule="nonzero"/></clipPath><clipPath id="e57908f23a"><rect x="0" width="13" y="0" height="13"/></clipPath><clipPath id="4fb009655a"><path d="M 116 100 L 275.359375 100 L 275.359375 130 L 116 130 Z M 116 100 " clip-rule="nonzero"/></clipPath><clipPath id="6fbd867d11"><rect x="0" width="160" y="0" height="30"/></clipPath><clipPath id="48660b1205"><rect x="0" width="276" y="0" height="130"/></clipPath></defs><g transform="matrix(1, 0, 0, 1, 52, 8)"><g clip-path="url(#48660b1205)"><g fill="#322f30" fill-opacity="0.4"><g transform="translate(2.583073, 90.350055)"><g><path d="M 16.328125 -54.328125 L 16.328125 0 L 3.953125 0 L 3.953125 -54.328125 Z M 16.328125 -54.328125 "/></g></g></g><g fill="#322f30" fill-opacity="0.4"><g transform="translate(20.82141, 90.350055)"><g><path d="M 3.953125 0 L 3.953125 -33.78125 L 15.609375 -33.78125 L 15.609375 -30.21875 L 15.734375 -30.21875 C 18.765625 -33.25 21.992188 -34.765625 25.421875 -34.765625 C 27.085938 -34.765625 28.742188 -34.546875 30.390625 -34.109375 C 32.035156 -33.671875 33.613281 -32.988281 35.125 -32.0625 C 36.644531 -31.144531 37.875 -29.835938 38.8125 -28.140625 C 39.757812 -26.453125 40.234375 -24.488281 40.234375 -22.25 L 40.234375 0 L 28.578125 0 L 28.578125 -19.09375 C 28.578125 -20.851562 28.015625 -22.390625 26.890625 -23.703125 C 25.773438 -25.015625 24.316406 -25.671875 22.515625 -25.671875 C 20.765625 -25.671875 19.175781 -24.988281 17.75 -23.625 C 16.320312 -22.269531 15.609375 -20.757812 15.609375 -19.09375 L 15.609375 0 Z M 3.953125 0 "/></g></g></g><g fill="#322f30" fill-opacity="0.4"><g transform="translate(62.302452, 90.350055)"><g><path d="M 18.640625 -34.765625 C 20.566406 -34.765625 22.472656 -34.546875 24.359375 -34.109375 C 26.242188 -33.671875 27.648438 -33.234375 28.578125 -32.796875 L 29.953125 -32.125 L 26.140625 -24.5 C 23.503906 -25.894531 21.003906 -26.59375 18.640625 -26.59375 C 17.316406 -26.59375 16.378906 -26.453125 15.828125 -26.171875 C 15.285156 -25.890625 15.015625 -25.351562 15.015625 -24.5625 C 15.015625 -24.382812 15.035156 -24.207031 15.078125 -24.03125 C 15.117188 -23.851562 15.207031 -23.6875 15.34375 -23.53125 C 15.476562 -23.382812 15.597656 -23.253906 15.703125 -23.140625 C 15.816406 -23.035156 16.003906 -22.914062 16.265625 -22.78125 C 16.523438 -22.644531 16.734375 -22.546875 16.890625 -22.484375 C 17.046875 -22.421875 17.296875 -22.320312 17.640625 -22.1875 C 17.992188 -22.050781 18.257812 -21.953125 18.4375 -21.890625 C 18.613281 -21.828125 18.910156 -21.726562 19.328125 -21.59375 C 19.742188 -21.46875 20.0625 -21.378906 20.28125 -21.328125 C 21.644531 -20.929688 22.828125 -20.492188 23.828125 -20.015625 C 24.835938 -19.535156 25.898438 -18.878906 27.015625 -18.046875 C 28.140625 -17.210938 29.007812 -16.15625 29.625 -14.875 C 30.238281 -13.601562 30.546875 -12.15625 30.546875 -10.53125 C 30.546875 -2.851562 25.210938 0.984375 14.546875 0.984375 C 12.140625 0.984375 9.847656 0.613281 7.671875 -0.125 C 5.492188 -0.875 3.925781 -1.625 2.96875 -2.375 L 1.515625 -3.5625 L 6.25 -11.515625 C 6.601562 -11.210938 7.066406 -10.851562 7.640625 -10.4375 C 8.210938 -10.019531 9.242188 -9.445312 10.734375 -8.71875 C 12.222656 -8 13.519531 -7.640625 14.625 -7.640625 C 17.03125 -7.640625 18.234375 -8.453125 18.234375 -10.078125 C 18.234375 -10.816406 17.925781 -11.394531 17.3125 -11.8125 C 16.695312 -12.226562 15.65625 -12.703125 14.1875 -13.234375 C 12.71875 -13.765625 11.566406 -14.25 10.734375 -14.6875 C 8.628906 -15.78125 6.960938 -17.019531 5.734375 -18.40625 C 4.503906 -19.789062 3.890625 -21.625 3.890625 -23.90625 C 3.890625 -27.320312 5.21875 -29.984375 7.875 -31.890625 C 10.53125 -33.804688 14.117188 -34.765625 18.640625 -34.765625 Z M 18.640625 -34.765625 "/></g></g></g><g fill="#322f30" fill-opacity="0.4"><g transform="translate(92.655968, 90.350055)"><g><path d="M 38.703125 -29.59375 C 41.867188 -26.144531 43.453125 -21.921875 43.453125 -16.921875 C 43.453125 -11.921875 41.867188 -7.6875 38.703125 -4.21875 C 35.546875 -0.75 31.535156 0.984375 26.671875 0.984375 C 22.191406 0.984375 18.503906 -0.414062 15.609375 -3.21875 L 15.609375 17.125 L 3.953125 17.125 L 3.953125 -33.78125 L 15.46875 -33.78125 L 15.46875 -29.953125 L 15.609375 -29.953125 C 18.503906 -33.160156 22.191406 -34.765625 26.671875 -34.765625 C 31.535156 -34.765625 35.546875 -33.039062 38.703125 -29.59375 Z M 28.796875 -11.1875 C 30.316406 -12.6875 31.078125 -14.597656 31.078125 -16.921875 C 31.078125 -19.242188 30.351562 -21.140625 28.90625 -22.609375 C 27.457031 -24.085938 25.546875 -24.828125 23.171875 -24.828125 C 20.890625 -24.828125 19.015625 -24.078125 17.546875 -22.578125 C 16.078125 -21.085938 15.34375 -19.203125 15.34375 -16.921875 C 15.34375 -14.597656 16.097656 -12.6875 17.609375 -11.1875 C 19.128906 -9.695312 20.984375 -8.953125 23.171875 -8.953125 C 25.410156 -8.953125 27.285156 -9.695312 28.796875 -11.1875 Z M 28.796875 -11.1875 "/></g></g></g><g fill="#322f30" fill-opacity="0.4"><g transform="translate(135.58557, 90.350055)"><g><path d="M 38.125 -15.28125 L 13.625 -15.28125 C 13.625 -12.90625 14.390625 -11.144531 15.921875 -10 C 17.460938 -8.863281 19.132812 -8.296875 20.9375 -8.296875 C 22.820312 -8.296875 24.3125 -8.546875 25.40625 -9.046875 C 26.507812 -9.554688 27.765625 -10.554688 29.171875 -12.046875 L 37.59375 -7.828125 C 34.082031 -1.953125 28.242188 0.984375 20.078125 0.984375 C 14.984375 0.984375 10.613281 -0.757812 6.96875 -4.25 C 3.332031 -7.738281 1.515625 -11.941406 1.515625 -16.859375 C 1.515625 -21.773438 3.332031 -25.988281 6.96875 -29.5 C 10.613281 -33.007812 14.984375 -34.765625 20.078125 -34.765625 C 25.429688 -34.765625 29.785156 -33.21875 33.140625 -30.125 C 36.503906 -27.03125 38.1875 -22.609375 38.1875 -16.859375 C 38.1875 -16.066406 38.164062 -15.539062 38.125 -15.28125 Z M 13.953125 -21.734375 L 26.796875 -21.734375 C 26.535156 -23.484375 25.84375 -24.828125 24.71875 -25.765625 C 23.601562 -26.710938 22.164062 -27.1875 20.40625 -27.1875 C 18.476562 -27.1875 16.941406 -26.679688 15.796875 -25.671875 C 14.660156 -24.671875 14.046875 -23.359375 13.953125 -21.734375 Z M 13.953125 -21.734375 "/></g></g></g><g fill="#322f30" fill-opacity="0.4"><g transform="translate(173.247706, 90.350055)"><g><path d="M 21.921875 -25.21875 C 19.734375 -25.21875 17.847656 -24.40625 16.265625 -22.78125 C 14.679688 -21.15625 13.890625 -19.203125 13.890625 -16.921875 C 13.890625 -14.597656 14.679688 -12.625 16.265625 -11 C 17.847656 -9.375 19.734375 -8.5625 21.921875 -8.5625 C 22.972656 -8.5625 23.972656 -8.691406 24.921875 -8.953125 C 25.867188 -9.210938 26.5625 -9.476562 27 -9.75 L 27.59375 -10.140625 L 31.546875 -2.046875 C 31.234375 -1.828125 30.800781 -1.550781 30.25 -1.21875 C 29.707031 -0.882812 28.457031 -0.4375 26.5 0.125 C 24.550781 0.695312 22.457031 0.984375 20.21875 0.984375 C 15.257812 0.984375 10.898438 -0.757812 7.140625 -4.25 C 3.390625 -7.738281 1.515625 -11.921875 1.515625 -16.796875 C 1.515625 -21.710938 3.390625 -25.9375 7.140625 -29.46875 C 10.898438 -33 15.257812 -34.765625 20.21875 -34.765625 C 22.457031 -34.765625 24.519531 -34.5 26.40625 -33.96875 C 28.289062 -33.445312 29.628906 -32.921875 30.421875 -32.390625 L 31.546875 -31.609375 L 27.59375 -23.640625 C 26.144531 -24.691406 24.253906 -25.21875 21.921875 -25.21875 Z M 21.921875 -25.21875 "/></g></g></g><g fill="#322f30" fill-opacity="0.4"><g transform="translate(203.535384, 90.350055)"><g><path d="M 5.921875 -33.78125 L 5.921875 -46.359375 L 17.578125 -46.359375 L 17.578125 -33.78125 L 24.6875 -33.78125 L 24.6875 -24.890625 L 17.578125 -24.890625 L 17.578125 -14.15625 C 17.578125 -11.039062 18.457031 -9.484375 20.21875 -9.484375 C 20.65625 -9.484375 21.113281 -9.570312 21.59375 -9.75 C 22.082031 -9.925781 22.457031 -10.097656 22.71875 -10.265625 L 23.109375 -10.53125 L 26.015625 -1.125 C 23.503906 0.28125 20.648438 0.984375 17.453125 0.984375 C 15.253906 0.984375 13.363281 0.601562 11.78125 -0.15625 C 10.207031 -0.925781 9.015625 -1.957031 8.203125 -3.25 C 7.390625 -4.550781 6.804688 -5.914062 6.453125 -7.34375 C 6.097656 -8.769531 5.921875 -10.296875 5.921875 -11.921875 L 5.921875 -24.890625 L 1.046875 -24.890625 L 1.046875 -33.78125 Z M 5.921875 -33.78125 "/></g></g></g><g fill="#322f30" fill-opacity="0.4"><g transform="translate(227.502081, 90.350055)"><g><path d="M 6.25 -4.171875 C 3.09375 -7.617188 1.515625 -11.84375 1.515625 -16.84375 C 1.515625 -21.851562 3.09375 -26.09375 6.25 -29.5625 C 9.414062 -33.03125 13.429688 -34.765625 18.296875 -34.765625 C 22.773438 -34.765625 26.460938 -33.359375 29.359375 -30.546875 L 29.359375 -33.78125 L 41.015625 -33.78125 L 41.015625 0 L 29.5 0 L 29.5 -3.8125 L 29.359375 -3.8125 C 26.460938 -0.613281 22.773438 0.984375 18.296875 0.984375 C 13.429688 0.984375 9.414062 -0.734375 6.25 -4.171875 Z M 16.15625 -22.578125 C 14.644531 -21.085938 13.890625 -19.175781 13.890625 -16.84375 C 13.890625 -14.519531 14.613281 -12.625 16.0625 -11.15625 C 17.507812 -9.6875 19.421875 -8.953125 21.796875 -8.953125 C 24.078125 -8.953125 25.953125 -9.695312 27.421875 -11.1875 C 28.890625 -12.6875 29.625 -14.578125 29.625 -16.859375 C 29.625 -19.179688 28.867188 -21.085938 27.359375 -22.578125 C 25.847656 -24.078125 23.992188 -24.828125 21.796875 -24.828125 C 19.554688 -24.828125 17.675781 -24.078125 16.15625 -22.578125 Z M 16.15625 -22.578125 "/></g></g></g><g fill="#7761f0" fill-opacity="1"><g transform="translate(2.583073, 90.350055)"><g><path d="M 16.328125 -54.328125 L 16.328125 0 L 3.953125 0 L 3.953125 -54.328125 Z M 16.328125 -54.328125 "/></g></g></g><g fill="#7761f0" fill-opacity="1"><g transform="translate(20.82141, 90.350055)"><g><path d="M 3.953125 0 L 3.953125 -33.78125 L 15.609375 -33.78125 L 15.609375 -30.21875 L 15.734375 -30.21875 C 18.765625 -33.25 21.992188 -34.765625 25.421875 -34.765625 C 27.085938 -34.765625 28.742188 -34.546875 30.390625 -34.109375 C 32.035156 -33.671875 33.613281 -32.988281 35.125 -32.0625 C 36.644531 -31.144531 37.875 -29.835938 38.8125 -28.140625 C 39.757812 -26.453125 40.234375 -24.488281 40.234375 -22.25 L 40.234375 0 L 28.578125 0 L 28.578125 -19.09375 C 28.578125 -20.851562 28.015625 -22.390625 26.890625 -23.703125 C 25.773438 -25.015625 24.316406 -25.671875 22.515625 -25.671875 C 20.765625 -25.671875 19.175781 -24.988281 17.75 -23.625 C 16.320312 -22.269531 15.609375 -20.757812 15.609375 -19.09375 L 15.609375 0 Z M 3.953125 0 "/></g></g></g><g fill="#7761f0" fill-opacity="1"><g transform="translate(62.302452, 90.350055)"><g><path d="M 18.640625 -34.765625 C 20.566406 -34.765625 22.472656 -34.546875 24.359375 -34.109375 C 26.242188 -33.671875 27.648438 -33.234375 28.578125 -32.796875 L 29.953125 -32.125 L 26.140625 -24.5 C 23.503906 -25.894531 21.003906 -26.59375 18.640625 -26.59375 C 17.316406 -26.59375 16.378906 -26.453125 15.828125 -26.171875 C 15.285156 -25.890625 15.015625 -25.351562 15.015625 -24.5625 C 15.015625 -24.382812 15.035156 -24.207031 15.078125 -24.03125 C 15.117188 -23.851562 15.207031 -23.6875 15.34375 -23.53125 C 15.476562 -23.382812 15.597656 -23.253906 15.703125 -23.140625 C 15.816406 -23.035156 16.003906 -22.914062 16.265625 -22.78125 C 16.523438 -22.644531 16.734375 -22.546875 16.890625 -22.484375 C 17.046875 -22.421875 17.296875 -22.320312 17.640625 -22.1875 C 17.992188 -22.050781 18.257812 -21.953125 18.4375 -21.890625 C 18.613281 -21.828125 18.910156 -21.726562 19.328125 -21.59375 C 19.742188 -21.46875 20.0625 -21.378906 20.28125 -21.328125 C 21.644531 -20.929688 22.828125 -20.492188 23.828125 -20.015625 C 24.835938 -19.535156 25.898438 -18.878906 27.015625 -18.046875 C 28.140625 -17.210938 29.007812 -16.15625 29.625 -14.875 C 30.238281 -13.601562 30.546875 -12.15625 30.546875 -10.53125 C 30.546875 -2.851562 25.210938 0.984375 14.546875 0.984375 C 12.140625 0.984375 9.847656 0.613281 7.671875 -0.125 C 5.492188 -0.875 3.925781 -1.625 2.96875 -2.375 L 1.515625 -3.5625 L 6.25 -11.515625 C 6.601562 -11.210938 7.066406 -10.851562 7.640625 -10.4375 C 8.210938 -10.019531 9.242188 -9.445312 10.734375 -8.71875 C 12.222656 -8 13.519531 -7.640625 14.625 -7.640625 C 17.03125 -7.640625 18.234375 -8.453125 18.234375 -10.078125 C 18.234375 -10.816406 17.925781 -11.394531 17.3125 -11.8125 C 16.695312 -12.226562 15.65625 -12.703125 14.1875 -13.234375 C 12.71875 -13.765625 11.566406 -14.25 10.734375 -14.6875 C 8.628906 -15.78125 6.960938 -17.019531 5.734375 -18.40625 C 4.503906 -19.789062 3.890625 -21.625 3.890625 -23.90625 C 3.890625 -27.320312 5.21875 -29.984375 7.875 -31.890625 C 10.53125 -33.804688 14.117188 -34.765625 18.640625 -34.765625 Z M 18.640625 -34.765625 "/></g></g></g><g fill="#7761f0" fill-opacity="1"><g transform="translate(92.655968, 90.350055)"><g><path d="M 38.703125 -29.59375 C 41.867188 -26.144531 43.453125 -21.921875 43.453125 -16.921875 C 43.453125 -11.921875 41.867188 -7.6875 38.703125 -4.21875 C 35.546875 -0.75 31.535156 0.984375 26.671875 0.984375 C 22.191406 0.984375 18.503906 -0.414062 15.609375 -3.21875 L 15.609375 17.125 L 3.953125 17.125 L 3.953125 -33.78125 L 15.46875 -33.78125 L 15.46875 -29.953125 L 15.609375 -29.953125 C 18.503906 -33.160156 22.191406 -34.765625 26.671875 -34.765625 C 31.535156 -34.765625 35.546875 -33.039062 38.703125 -29.59375 Z M 28.796875 -11.1875 C 30.316406 -12.6875 31.078125 -14.597656 31.078125 -16.921875 C 31.078125 -19.242188 30.351562 -21.140625 28.90625 -22.609375 C 27.457031 -24.085938 25.546875 -24.828125 23.171875 -24.828125 C 20.890625 -24.828125 19.015625 -24.078125 17.546875 -22.578125 C 16.078125 -21.085938 15.34375 -19.203125 15.34375 -16.921875 C 15.34375 -14.597656 16.097656 -12.6875 17.609375 -11.1875 C 19.128906 -9.695312 20.984375 -8.953125 23.171875 -8.953125 C 25.410156 -8.953125 27.285156 -9.695312 28.796875 -11.1875 Z M 28.796875 -11.1875 "/></g></g></g><g fill="#7761f0" fill-opacity="1"><g transform="translate(135.58557, 90.350055)"><g><path d="M 38.125 -15.28125 L 13.625 -15.28125 C 13.625 -12.90625 14.390625 -11.144531 15.921875 -10 C 17.460938 -8.863281 19.132812 -8.296875 20.9375 -8.296875 C 22.820312 -8.296875 24.3125 -8.546875 25.40625 -9.046875 C 26.507812 -9.554688 27.765625 -10.554688 29.171875 -12.046875 L 37.59375 -7.828125 C 34.082031 -1.953125 28.242188 0.984375 20.078125 0.984375 C 14.984375 0.984375 10.613281 -0.757812 6.96875 -4.25 C 3.332031 -7.738281 1.515625 -11.941406 1.515625 -16.859375 C 1.515625 -21.773438 3.332031 -25.988281 6.96875 -29.5 C 10.613281 -33.007812 14.984375 -34.765625 20.078125 -34.765625 C 25.429688 -34.765625 29.785156 -33.21875 33.140625 -30.125 C 36.503906 -27.03125 38.1875 -22.609375 38.1875 -16.859375 C 38.1875 -16.066406 38.164062 -15.539062 38.125 -15.28125 Z M 13.953125 -21.734375 L 26.796875 -21.734375 C 26.535156 -23.484375 25.84375 -24.828125 24.71875 -25.765625 C 23.601562 -26.710938 22.164062 -27.1875 20.40625 -27.1875 C 18.476562 -27.1875 16.941406 -26.679688 15.796875 -25.671875 C 14.660156 -24.671875 14.046875 -23.359375 13.953125 -21.734375 Z M 13.953125 -21.734375 "/></g></g></g><g fill="#7761f0" fill-opacity="1"><g transform="translate(173.247706, 90.350055)"><g><path d="M 21.921875 -25.21875 C 19.734375 -25.21875 17.847656 -24.40625 16.265625 -22.78125 C 14.679688 -21.15625 13.890625 -19.203125 13.890625 -16.921875 C 13.890625 -14.597656 14.679688 -12.625 16.265625 -11 C 17.847656 -9.375 19.734375 -8.5625 21.921875 -8.5625 C 22.972656 -8.5625 23.972656 -8.691406 24.921875 -8.953125 C 25.867188 -9.210938 26.5625 -9.476562 27 -9.75 L 27.59375 -10.140625 L 31.546875 -2.046875 C 31.234375 -1.828125 30.800781 -1.550781 30.25 -1.21875 C 29.707031 -0.882812 28.457031 -0.4375 26.5 0.125 C 24.550781 0.695312 22.457031 0.984375 20.21875 0.984375 C 15.257812 0.984375 10.898438 -0.757812 7.140625 -4.25 C 3.390625 -7.738281 1.515625 -11.921875 1.515625 -16.796875 C 1.515625 -21.710938 3.390625 -25.9375 7.140625 -29.46875 C 10.898438 -33 15.257812 -34.765625 20.21875 -34.765625 C 22.457031 -34.765625 24.519531 -34.5 26.40625 -33.96875 C 28.289062 -33.445312 29.628906 -32.921875 30.421875 -32.390625 L 31.546875 -31.609375 L 27.59375 -23.640625 C 26.144531 -24.691406 24.253906 -25.21875 21.921875 -25.21875 Z M 21.921875 -25.21875 "/></g></g></g><g fill="#7761f0" fill-opacity="1"><g transform="translate(203.535384, 90.350055)"><g><path d="M 5.921875 -33.78125 L 5.921875 -46.359375 L 17.578125 -46.359375 L 17.578125 -33.78125 L 24.6875 -33.78125 L 24.6875 -24.890625 L 17.578125 -24.890625 L 17.578125 -14.15625 C 17.578125 -11.039062 18.457031 -9.484375 20.21875 -9.484375 C 20.65625 -9.484375 21.113281 -9.570312 21.59375 -9.75 C 22.082031 -9.925781 22.457031 -10.097656 22.71875 -10.265625 L 23.109375 -10.53125 L 26.015625 -1.125 C 23.503906 0.28125 20.648438 0.984375 17.453125 0.984375 C 15.253906 0.984375 13.363281 0.601562 11.78125 -0.15625 C 10.207031 -0.925781 9.015625 -1.957031 8.203125 -3.25 C 7.390625 -4.550781 6.804688 -5.914062 6.453125 -7.34375 C 6.097656 -8.769531 5.921875 -10.296875 5.921875 -11.921875 L 5.921875 -24.890625 L 1.046875 -24.890625 L 1.046875 -33.78125 Z M 5.921875 -33.78125 "/></g></g></g><g fill="#7761f0" fill-opacity="1"><g transform="translate(227.502081, 90.350055)"><g><path d="M 6.25 -4.171875 C 3.09375 -7.617188 1.515625 -11.84375 1.515625 -16.84375 C 1.515625 -21.851562 3.09375 -26.09375 6.25 -29.5625 C 9.414062 -33.03125 13.429688 -34.765625 18.296875 -34.765625 C 22.773438 -34.765625 26.460938 -33.359375 29.359375 -30.546875 L 29.359375 -33.78125 L 41.015625 -33.78125 L 41.015625 0 L 29.5 0 L 29.5 -3.8125 L 29.359375 -3.8125 C 26.460938 -0.613281 22.773438 0.984375 18.296875 0.984375 C 13.429688 0.984375 9.414062 -0.734375 6.25 -4.171875 Z M 16.15625 -22.578125 C 14.644531 -21.085938 13.890625 -19.175781 13.890625 -16.84375 C 13.890625 -14.519531 14.613281 -12.625 16.0625 -11.15625 C 17.507812 -9.6875 19.421875 -8.953125 21.796875 -8.953125 C 24.078125 -8.953125 25.953125 -9.695312 27.421875 -11.1875 C 28.890625 -12.6875 29.625 -14.578125 29.625 -16.859375 C 29.625 -19.179688 28.867188 -21.085938 27.359375 -22.578125 C 25.847656 -24.078125 23.992188 -24.828125 21.796875 -24.828125 C 19.554688 -24.828125 17.675781 -24.078125 16.15625 -22.578125 Z M 16.15625 -22.578125 "/></g></g></g><g clip-path="url(#7880a24912)"><g clip-path="url(#5c3442bed5)"><g transform="matrix(1, 0, 0, 1, 0, -0.000000000000007105)"><g clip-path="url(#723c368c26)"><g clip-path="url(#d10f5b0c42)"><g clip-path="url(#a8105de4db)"><path fill="#ffbd59" d="M 0.414062 0.441406 L 24.960938 0.441406 L 24.960938 24.988281 L 0.414062 24.988281 Z M 0.414062 0.441406 " fill-opacity="1" fill-rule="nonzero"/></g></g></g></g></g></g><g clip-path="url(#5832ed9c91)"><g clip-path="url(#d4e73cb532)"><g transform="matrix(1, 0, 0, 1, 34, 4)"><g clip-path="url(#15cbd1e53d)"><g clip-path="url(#ec6bebd58a)"><g clip-path="url(#a70d78ad2c)"><path fill="#ffbd59" d="M 0.546875 0.09375 L 17.792969 0.09375 L 17.792969 17.339844 L 0.546875 17.339844 Z M 0.546875 0.09375 " fill-opacity="1" fill-rule="nonzero"/></g></g></g></g></g></g><g clip-path="url(#7976d47eed)"><g clip-path="url(#74b9262c53)"><g transform="matrix(1, 0, 0, 1, 37, 32)"><g clip-path="url(#e57908f23a)"><g clip-path="url(#931c50d977)"><g clip-path="url(#0a3f0f1e67)"><path fill="#ffbd59" d="M 0.152344 0.117188 L 12.191406 0.117188 L 12.191406 12.160156 L 0.152344 12.160156 Z M 0.152344 0.117188 " fill-opacity="1" fill-rule="nonzero"/></g></g></g></g></g></g><g clip-path="url(#4fb009655a)"><g transform="matrix(1, 0, 0, 1, 116, 100)"><g clip-path="url(#6fbd867d11)"><g fill="#000c1b" fill-opacity="1"><g transform="translate(0.667025, 7.374952)"><g><path d="M 0.78125 -5.234375 L 1.53125 -5.234375 L 1.53125 0 L 0.78125 0 Z M 0.78125 -5.234375 "/></g></g></g><g fill="#000c1b" fill-opacity="1"><g transform="translate(4.832915, 7.374952)"><g><path d="M 5.28125 -5.234375 L 5.28125 0 L 4.671875 0 L 1.53125 -3.90625 L 1.53125 0 L 0.78125 0 L 0.78125 -5.234375 L 1.390625 -5.234375 L 4.53125 -1.328125 L 4.53125 -5.234375 Z M 5.28125 -5.234375 "/></g></g></g><g fill="#000c1b" fill-opacity="1"><g transform="translate(12.746617, 7.374952)"><g><path d="M 0.78125 -5.234375 L 2.984375 -5.234375 C 3.535156 -5.234375 4.023438 -5.125 4.453125 -4.90625 C 4.878906 -4.6875 5.210938 -4.378906 5.453125 -3.984375 C 5.691406 -3.585938 5.8125 -3.128906 5.8125 -2.609375 C 5.8125 -2.097656 5.691406 -1.644531 5.453125 -1.25 C 5.210938 -0.851562 4.878906 -0.546875 4.453125 -0.328125 C 4.023438 -0.109375 3.535156 0 2.984375 0 L 0.78125 0 Z M 2.9375 -0.65625 C 3.363281 -0.65625 3.738281 -0.734375 4.0625 -0.890625 C 4.382812 -1.054688 4.628906 -1.285156 4.796875 -1.578125 C 4.972656 -1.878906 5.0625 -2.222656 5.0625 -2.609375 C 5.0625 -3.003906 4.972656 -3.347656 4.796875 -3.640625 C 4.628906 -3.929688 4.382812 -4.160156 4.0625 -4.328125 C 3.738281 -4.492188 3.363281 -4.578125 2.9375 -4.578125 L 1.53125 -4.578125 L 1.53125 -0.65625 Z M 2.9375 -0.65625 "/></g></g></g><g fill="#000c1b" fill-opacity="1"><g transform="translate(20.76484, 7.374952)"><g><path d="M 3.140625 0.0625 C 2.617188 0.0625 2.144531 -0.0507812 1.71875 -0.28125 C 1.289062 -0.519531 0.957031 -0.84375 0.71875 -1.25 C 0.476562 -1.65625 0.359375 -2.109375 0.359375 -2.609375 C 0.359375 -3.117188 0.476562 -3.578125 0.71875 -3.984375 C 0.957031 -4.390625 1.289062 -4.707031 1.71875 -4.9375 C 2.144531 -5.164062 2.617188 -5.28125 3.140625 -5.28125 C 3.660156 -5.28125 4.132812 -5.164062 4.5625 -4.9375 C 4.988281 -4.707031 5.320312 -4.390625 5.5625 -3.984375 C 5.800781 -3.578125 5.921875 -3.117188 5.921875 -2.609375 C 5.921875 -2.109375 5.800781 -1.65625 5.5625 -1.25 C 5.320312 -0.84375 4.988281 -0.519531 4.5625 -0.28125 C 4.132812 -0.0507812 3.660156 0.0625 3.140625 0.0625 Z M 3.140625 -0.609375 C 3.523438 -0.609375 3.867188 -0.691406 4.171875 -0.859375 C 4.484375 -1.035156 4.726562 -1.273438 4.90625 -1.578125 C 5.082031 -1.890625 5.171875 -2.234375 5.171875 -2.609375 C 5.171875 -2.992188 5.082031 -3.335938 4.90625 -3.640625 C 4.726562 -3.941406 4.484375 -4.179688 4.171875 -4.359375 C 3.867188 -4.535156 3.523438 -4.625 3.140625 -4.625 C 2.753906 -4.625 2.40625 -4.535156 2.09375 -4.359375 C 1.789062 -4.179688 1.550781 -3.941406 1.375 -3.640625 C 1.195312 -3.335938 1.109375 -2.992188 1.109375 -2.609375 C 1.109375 -2.234375 1.195312 -1.890625 1.375 -1.578125 C 1.550781 -1.273438 1.789062 -1.035156 2.09375 -0.859375 C 2.40625 -0.691406 2.753906 -0.609375 3.140625 -0.609375 Z M 3.140625 -0.609375 "/></g></g></g><g fill="#000c1b" fill-opacity="1"><g transform="translate(28.887591, 7.374952)"><g><path d="M 1.53125 -4.578125 L 1.53125 -2.75 L 4.15625 -2.75 L 4.15625 -2.109375 L 1.53125 -2.109375 L 1.53125 0 L 0.78125 0 L 0.78125 -5.234375 L 4.46875 -5.234375 L 4.46875 -4.578125 Z M 1.53125 -4.578125 "/></g></g></g><g fill="#000c1b" fill-opacity="1"><g transform="translate(35.479855, 7.374952)"><g><path d="M 3.140625 0.0625 C 2.617188 0.0625 2.144531 -0.0507812 1.71875 -0.28125 C 1.289062 -0.519531 0.957031 -0.84375 0.71875 -1.25 C 0.476562 -1.65625 0.359375 -2.109375 0.359375 -2.609375 C 0.359375 -3.117188 0.476562 -3.578125 0.71875 -3.984375 C 0.957031 -4.390625 1.289062 -4.707031 1.71875 -4.9375 C 2.144531 -5.164062 2.617188 -5.28125 3.140625 -5.28125 C 3.660156 -5.28125 4.132812 -5.164062 4.5625 -4.9375 C 4.988281 -4.707031 5.320312 -4.390625 5.5625 -3.984375 C 5.800781 -3.578125 5.921875 -3.117188 5.921875 -2.609375 C 5.921875 -2.109375 5.800781 -1.65625 5.5625 -1.25 C 5.320312 -0.84375 4.988281 -0.519531 4.5625 -0.28125 C 4.132812 -0.0507812 3.660156 0.0625 3.140625 0.0625 Z M 3.140625 -0.609375 C 3.523438 -0.609375 3.867188 -0.691406 4.171875 -0.859375 C 4.484375 -1.035156 4.726562 -1.273438 4.90625 -1.578125 C 5.082031 -1.890625 5.171875 -2.234375 5.171875 -2.609375 C 5.171875 -2.992188 5.082031 -3.335938 4.90625 -3.640625 C 4.726562 -3.941406 4.484375 -4.179688 4.171875 -4.359375 C 3.867188 -4.535156 3.523438 -4.625 3.140625 -4.625 C 2.753906 -4.625 2.40625 -4.535156 2.09375 -4.359375 C 1.789062 -4.179688 1.550781 -3.941406 1.375 -3.640625 C 1.195312 -3.335938 1.109375 -2.992188 1.109375 -2.609375 C 1.109375 -2.234375 1.195312 -1.890625 1.375 -1.578125 C 1.550781 -1.273438 1.789062 -1.035156 2.09375 -0.859375 C 2.40625 -0.691406 2.753906 -0.609375 3.140625 -0.609375 Z M 3.140625 -0.609375 "/></g></g></g><g fill="#000c1b" fill-opacity="1"><g transform="translate(43.602607, 7.374952)"><g><path d="M 3.140625 0.0625 C 2.617188 0.0625 2.144531 -0.0507812 1.71875 -0.28125 C 1.289062 -0.519531 0.957031 -0.84375 0.71875 -1.25 C 0.476562 -1.65625 0.359375 -2.109375 0.359375 -2.609375 C 0.359375 -3.117188 0.476562 -3.578125 0.71875 -3.984375 C 0.957031 -4.390625 1.289062 -4.707031 1.71875 -4.9375 C 2.144531 -5.164062 2.617188 -5.28125 3.140625 -5.28125 C 3.660156 -5.28125 4.132812 -5.164062 4.5625 -4.9375 C 4.988281 -4.707031 5.320312 -4.390625 5.5625 -3.984375 C 5.800781 -3.578125 5.921875 -3.117188 5.921875 -2.609375 C 5.921875 -2.109375 5.800781 -1.65625 5.5625 -1.25 C 5.320312 -0.84375 4.988281 -0.519531 4.5625 -0.28125 C 4.132812 -0.0507812 3.660156 0.0625 3.140625 0.0625 Z M 3.140625 -0.609375 C 3.523438 -0.609375 3.867188 -0.691406 4.171875 -0.859375 C 4.484375 -1.035156 4.726562 -1.273438 4.90625 -1.578125 C 5.082031 -1.890625 5.171875 -2.234375 5.171875 -2.609375 C 5.171875 -2.992188 5.082031 -3.335938 4.90625 -3.640625 C 4.726562 -3.941406 4.484375 -4.179688 4.171875 -4.359375 C 3.867188 -4.535156 3.523438 -4.625 3.140625 -4.625 C 2.753906 -4.625 2.40625 -4.535156 2.09375 -4.359375 C 1.789062 -4.179688 1.550781 -3.941406 1.375 -3.640625 C 1.195312 -3.335938 1.109375 -2.992188 1.109375 -2.609375 C 1.109375 -2.234375 1.195312 -1.890625 1.375 -1.578125 C 1.550781 -1.273438 1.789062 -1.035156 2.09375 -0.859375 C 2.40625 -0.691406 2.753906 -0.609375 3.140625 -0.609375 Z M 3.140625 -0.609375 "/></g></g></g><g fill="#000c1b" fill-opacity="1"><g transform="translate(51.725358, 7.374952)"><g><path d="M 0.78125 -5.234375 L 2.984375 -5.234375 C 3.535156 -5.234375 4.023438 -5.125 4.453125 -4.90625 C 4.878906 -4.6875 5.210938 -4.378906 5.453125 -3.984375 C 5.691406 -3.585938 5.8125 -3.128906 5.8125 -2.609375 C 5.8125 -2.097656 5.691406 -1.644531 5.453125 -1.25 C 5.210938 -0.851562 4.878906 -0.546875 4.453125 -0.328125 C 4.023438 -0.109375 3.535156 0 2.984375 0 L 0.78125 0 Z M 2.9375 -0.65625 C 3.363281 -0.65625 3.738281 -0.734375 4.0625 -0.890625 C 4.382812 -1.054688 4.628906 -1.285156 4.796875 -1.578125 C 4.972656 -1.878906 5.0625 -2.222656 5.0625 -2.609375 C 5.0625 -3.003906 4.972656 -3.347656 4.796875 -3.640625 C 4.628906 -3.929688 4.382812 -4.160156 4.0625 -4.328125 C 3.738281 -4.492188 3.363281 -4.578125 2.9375 -4.578125 L 1.53125 -4.578125 L 1.53125 -0.65625 Z M 2.9375 -0.65625 "/></g></g></g><g fill="#000c1b" fill-opacity="1"><g transform="translate(59.74358, 7.374952)"><g/></g></g><g fill="#000c1b" fill-opacity="1"><g transform="translate(63.603373, 7.374952)"><g><path d="M 2.3125 0.0625 C 1.914062 0.0625 1.535156 0 1.171875 -0.125 C 0.804688 -0.25 0.519531 -0.40625 0.3125 -0.59375 L 0.578125 -1.1875 C 0.773438 -1 1.03125 -0.847656 1.34375 -0.734375 C 1.65625 -0.628906 1.976562 -0.578125 2.3125 -0.578125 C 2.738281 -0.578125 3.054688 -0.648438 3.265625 -0.796875 C 3.484375 -0.941406 3.59375 -1.132812 3.59375 -1.375 C 3.59375 -1.5625 3.535156 -1.707031 3.421875 -1.8125 C 3.304688 -1.925781 3.160156 -2.015625 2.984375 -2.078125 C 2.816406 -2.140625 2.578125 -2.207031 2.265625 -2.28125 C 1.867188 -2.375 1.550781 -2.46875 1.3125 -2.5625 C 1.070312 -2.65625 0.863281 -2.800781 0.6875 -3 C 0.519531 -3.195312 0.4375 -3.460938 0.4375 -3.796875 C 0.4375 -4.078125 0.507812 -4.328125 0.65625 -4.546875 C 0.800781 -4.773438 1.019531 -4.953125 1.3125 -5.078125 C 1.613281 -5.210938 1.988281 -5.28125 2.4375 -5.28125 C 2.738281 -5.28125 3.039062 -5.238281 3.34375 -5.15625 C 3.644531 -5.082031 3.898438 -4.972656 4.109375 -4.828125 L 3.875 -4.234375 C 3.65625 -4.367188 3.421875 -4.472656 3.171875 -4.546875 C 2.921875 -4.617188 2.675781 -4.65625 2.4375 -4.65625 C 2.007812 -4.65625 1.691406 -4.578125 1.484375 -4.421875 C 1.273438 -4.265625 1.171875 -4.066406 1.171875 -3.828125 C 1.171875 -3.648438 1.226562 -3.503906 1.34375 -3.390625 C 1.46875 -3.273438 1.613281 -3.1875 1.78125 -3.125 C 1.957031 -3.0625 2.203125 -2.992188 2.515625 -2.921875 C 2.898438 -2.828125 3.210938 -2.734375 3.453125 -2.640625 C 3.691406 -2.546875 3.894531 -2.398438 4.0625 -2.203125 C 4.238281 -2.015625 4.328125 -1.753906 4.328125 -1.421875 C 4.328125 -1.148438 4.253906 -0.898438 4.109375 -0.671875 C 3.960938 -0.453125 3.734375 -0.273438 3.421875 -0.140625 C 3.117188 -0.00390625 2.75 0.0625 2.3125 0.0625 Z M 2.3125 0.0625 "/></g></g></g><g fill="#000c1b" fill-opacity="1"><g transform="translate(70.091118, 7.374952)"><g><path d="M 4.109375 -1.3125 L 1.34375 -1.3125 L 0.765625 0 L 0 0 L 2.359375 -5.234375 L 3.09375 -5.234375 L 5.46875 0 L 4.6875 0 Z M 3.859375 -1.90625 L 2.71875 -4.46875 L 1.59375 -1.90625 Z M 3.859375 -1.90625 "/></g></g></g><g fill="#000c1b" fill-opacity="1"><g transform="translate(77.407559, 7.374952)"><g><path d="M 5.28125 -5.234375 L 5.28125 0 L 4.671875 0 L 1.53125 -3.90625 L 1.53125 0 L 0.78125 0 L 0.78125 -5.234375 L 1.390625 -5.234375 L 4.53125 -1.328125 L 4.53125 -5.234375 Z M 5.28125 -5.234375 "/></g></g></g><g fill="#000c1b" fill-opacity="1"><g transform="translate(85.321261, 7.374952)"><g><path d="M 0.78125 -5.234375 L 1.53125 -5.234375 L 1.53125 0 L 0.78125 0 Z M 0.78125 -5.234375 "/></g></g></g><g fill="#000c1b" fill-opacity="1"><g transform="translate(89.487152, 7.374952)"><g><path d="M 1.828125 -4.578125 L 0.03125 -4.578125 L 0.03125 -5.234375 L 4.359375 -5.234375 L 4.359375 -4.578125 L 2.5625 -4.578125 L 2.5625 0 L 1.828125 0 Z M 1.828125 -4.578125 "/></g></g></g><g fill="#000c1b" fill-opacity="1"><g transform="translate(95.721059, 7.374952)"><g><path d="M 4.109375 -1.3125 L 1.34375 -1.3125 L 0.765625 0 L 0 0 L 2.359375 -5.234375 L 3.09375 -5.234375 L 5.46875 0 L 4.6875 0 Z M 3.859375 -1.90625 L 2.71875 -4.46875 L 1.59375 -1.90625 Z M 3.859375 -1.90625 "/></g></g></g><g fill="#000c1b" fill-opacity="1"><g transform="translate(103.0375, 7.374952)"><g><path d="M 1.828125 -4.578125 L 0.03125 -4.578125 L 0.03125 -5.234375 L 4.359375 -5.234375 L 4.359375 -4.578125 L 2.5625 -4.578125 L 2.5625 0 L 1.828125 0 Z M 1.828125 -4.578125 "/></g></g></g><g fill="#000c1b" fill-opacity="1"><g transform="translate(109.271408, 7.374952)"><g><path d="M 0.78125 -5.234375 L 1.53125 -5.234375 L 1.53125 0 L 0.78125 0 Z M 0.78125 -5.234375 "/></g></g></g><g fill="#000c1b" fill-opacity="1"><g transform="translate(113.437298, 7.374952)"><g><path d="M 3.140625 0.0625 C 2.617188 0.0625 2.144531 -0.0507812 1.71875 -0.28125 C 1.289062 -0.519531 0.957031 -0.84375 0.71875 -1.25 C 0.476562 -1.65625 0.359375 -2.109375 0.359375 -2.609375 C 0.359375 -3.117188 0.476562 -3.578125 0.71875 -3.984375 C 0.957031 -4.390625 1.289062 -4.707031 1.71875 -4.9375 C 2.144531 -5.164062 2.617188 -5.28125 3.140625 -5.28125 C 3.660156 -5.28125 4.132812 -5.164062 4.5625 -4.9375 C 4.988281 -4.707031 5.320312 -4.390625 5.5625 -3.984375 C 5.800781 -3.578125 5.921875 -3.117188 5.921875 -2.609375 C 5.921875 -2.109375 5.800781 -1.65625 5.5625 -1.25 C 5.320312 -0.84375 4.988281 -0.519531 4.5625 -0.28125 C 4.132812 -0.0507812 3.660156 0.0625 3.140625 0.0625 Z M 3.140625 -0.609375 C 3.523438 -0.609375 3.867188 -0.691406 4.171875 -0.859375 C 4.484375 -1.035156 4.726562 -1.273438 4.90625 -1.578125 C 5.082031 -1.890625 5.171875 -2.234375 5.171875 -2.609375 C 5.171875 -2.992188 5.082031 -3.335938 4.90625 -3.640625 C 4.726562 -3.941406 4.484375 -4.179688 4.171875 -4.359375 C 3.867188 -4.535156 3.523438 -4.625 3.140625 -4.625 C 2.753906 -4.625 2.40625 -4.535156 2.09375 -4.359375 C 1.789062 -4.179688 1.550781 -3.941406 1.375 -3.640625 C 1.195312 -3.335938 1.109375 -2.992188 1.109375 -2.609375 C 1.109375 -2.234375 1.195312 -1.890625 1.375 -1.578125 C 1.550781 -1.273438 1.789062 -1.035156 2.09375 -0.859375 C 2.40625 -0.691406 2.753906 -0.609375 3.140625 -0.609375 Z M 3.140625 -0.609375 "/></g></g></g><g fill="#000c1b" fill-opacity="1"><g transform="translate(121.560049, 7.374952)"><g><path d="M 5.28125 -5.234375 L 5.28125 0 L 4.671875 0 L 1.53125 -3.90625 L 1.53125 0 L 0.78125 0 L 0.78125 -5.234375 L 1.390625 -5.234375 L 4.53125 -1.328125 L 4.53125 -5.234375 Z M 5.28125 -5.234375 "/></g></g></g><g fill="#000c1b" fill-opacity="1"><g transform="translate(129.479869, 7.374952)"><g/></g></g><g fill="#000c1b" fill-opacity="1"><g transform="translate(0.667025, 17.329246)"><g><path d="M 2.828125 -5.234375 C 3.503906 -5.234375 4.035156 -5.066406 4.421875 -4.734375 C 4.804688 -4.410156 5 -3.96875 5 -3.40625 C 5 -2.832031 4.804688 -2.382812 4.421875 -2.0625 C 4.035156 -1.738281 3.503906 -1.578125 2.828125 -1.578125 L 1.53125 -1.578125 L 1.53125 0 L 0.78125 0 L 0.78125 -5.234375 Z M 2.796875 -2.234375 C 3.273438 -2.234375 3.632812 -2.332031 3.875 -2.53125 C 4.125 -2.738281 4.25 -3.03125 4.25 -3.40625 C 4.25 -3.78125 4.125 -4.066406 3.875 -4.265625 C 3.632812 -4.472656 3.273438 -4.578125 2.796875 -4.578125 L 1.53125 -4.578125 L 1.53125 -2.234375 Z M 2.796875 -2.234375 "/></g></g></g><g fill="#000c1b" fill-opacity="1"><g transform="translate(7.908811, 17.329246)"><g><path d="M 4.578125 -0.65625 L 4.578125 0 L 0.78125 0 L 0.78125 -5.234375 L 4.46875 -5.234375 L 4.46875 -4.578125 L 1.53125 -4.578125 L 1.53125 -2.96875 L 4.15625 -2.96875 L 4.15625 -2.34375 L 1.53125 -2.34375 L 1.53125 -0.65625 Z M 4.578125 -0.65625 "/></g></g></g><g fill="#000c1b" fill-opacity="1"><g transform="translate(14.762375, 17.329246)"><g><path d="M 4.28125 0 L 3.15625 -1.609375 C 3.007812 -1.597656 2.898438 -1.59375 2.828125 -1.59375 L 1.53125 -1.59375 L 1.53125 0 L 0.78125 0 L 0.78125 -5.234375 L 2.828125 -5.234375 C 3.503906 -5.234375 4.035156 -5.066406 4.421875 -4.734375 C 4.804688 -4.410156 5 -3.96875 5 -3.40625 C 5 -3 4.898438 -2.65625 4.703125 -2.375 C 4.503906 -2.09375 4.222656 -1.882812 3.859375 -1.75 L 5.09375 0 Z M 2.796875 -2.21875 C 3.273438 -2.21875 3.632812 -2.320312 3.875 -2.53125 C 4.125 -2.738281 4.25 -3.03125 4.25 -3.40625 C 4.25 -3.78125 4.125 -4.066406 3.875 -4.265625 C 3.632812 -4.472656 3.273438 -4.578125 2.796875 -4.578125 L 1.53125 -4.578125 L 1.53125 -2.21875 Z M 2.796875 -2.21875 "/></g></g></g><g fill="#000c1b" fill-opacity="1"><g transform="translate(22.041488, 17.329246)"><g><path d="M 1.53125 -4.578125 L 1.53125 -2.75 L 4.15625 -2.75 L 4.15625 -2.109375 L 1.53125 -2.109375 L 1.53125 0 L 0.78125 0 L 0.78125 -5.234375 L 4.46875 -5.234375 L 4.46875 -4.578125 Z M 1.53125 -4.578125 "/></g></g></g><g fill="#000c1b" fill-opacity="1"><g transform="translate(28.633753, 17.329246)"><g><path d="M 3.140625 0.0625 C 2.617188 0.0625 2.144531 -0.0507812 1.71875 -0.28125 C 1.289062 -0.519531 0.957031 -0.84375 0.71875 -1.25 C 0.476562 -1.65625 0.359375 -2.109375 0.359375 -2.609375 C 0.359375 -3.117188 0.476562 -3.578125 0.71875 -3.984375 C 0.957031 -4.390625 1.289062 -4.707031 1.71875 -4.9375 C 2.144531 -5.164062 2.617188 -5.28125 3.140625 -5.28125 C 3.660156 -5.28125 4.132812 -5.164062 4.5625 -4.9375 C 4.988281 -4.707031 5.320312 -4.390625 5.5625 -3.984375 C 5.800781 -3.578125 5.921875 -3.117188 5.921875 -2.609375 C 5.921875 -2.109375 5.800781 -1.65625 5.5625 -1.25 C 5.320312 -0.84375 4.988281 -0.519531 4.5625 -0.28125 C 4.132812 -0.0507812 3.660156 0.0625 3.140625 0.0625 Z M 3.140625 -0.609375 C 3.523438 -0.609375 3.867188 -0.691406 4.171875 -0.859375 C 4.484375 -1.035156 4.726562 -1.273438 4.90625 -1.578125 C 5.082031 -1.890625 5.171875 -2.234375 5.171875 -2.609375 C 5.171875 -2.992188 5.082031 -3.335938 4.90625 -3.640625 C 4.726562 -3.941406 4.484375 -4.179688 4.171875 -4.359375 C 3.867188 -4.535156 3.523438 -4.625 3.140625 -4.625 C 2.753906 -4.625 2.40625 -4.535156 2.09375 -4.359375 C 1.789062 -4.179688 1.550781 -3.941406 1.375 -3.640625 C 1.195312 -3.335938 1.109375 -2.992188 1.109375 -2.609375 C 1.109375 -2.234375 1.195312 -1.890625 1.375 -1.578125 C 1.550781 -1.273438 1.789062 -1.035156 2.09375 -0.859375 C 2.40625 -0.691406 2.753906 -0.609375 3.140625 -0.609375 Z M 3.140625 -0.609375 "/></g></g></g><g fill="#000c1b" fill-opacity="1"><g transform="translate(36.756504, 17.329246)"><g><path d="M 4.28125 0 L 3.15625 -1.609375 C 3.007812 -1.597656 2.898438 -1.59375 2.828125 -1.59375 L 1.53125 -1.59375 L 1.53125 0 L 0.78125 0 L 0.78125 -5.234375 L 2.828125 -5.234375 C 3.503906 -5.234375 4.035156 -5.066406 4.421875 -4.734375 C 4.804688 -4.410156 5 -3.96875 5 -3.40625 C 5 -3 4.898438 -2.65625 4.703125 -2.375 C 4.503906 -2.09375 4.222656 -1.882812 3.859375 -1.75 L 5.09375 0 Z M 2.796875 -2.21875 C 3.273438 -2.21875 3.632812 -2.320312 3.875 -2.53125 C 4.125 -2.738281 4.25 -3.03125 4.25 -3.40625 C 4.25 -3.78125 4.125 -4.066406 3.875 -4.265625 C 3.632812 -4.472656 3.273438 -4.578125 2.796875 -4.578125 L 1.53125 -4.578125 L 1.53125 -2.21875 Z M 2.796875 -2.21875 "/></g></g></g><g fill="#000c1b" fill-opacity="1"><g transform="translate(44.035618, 17.329246)"><g><path d="M 5.625 0 L 5.625 -3.8125 L 3.734375 -0.640625 L 3.390625 -0.640625 L 1.5 -3.78125 L 1.5 0 L 0.78125 0 L 0.78125 -5.234375 L 1.390625 -5.234375 L 3.578125 -1.546875 L 5.734375 -5.234375 L 6.34375 -5.234375 L 6.34375 0 Z M 5.625 0 "/></g></g></g><g fill="#000c1b" fill-opacity="1"><g transform="translate(53.01693, 17.329246)"><g><path d="M 4.109375 -1.3125 L 1.34375 -1.3125 L 0.765625 0 L 0 0 L 2.359375 -5.234375 L 3.09375 -5.234375 L 5.46875 0 L 4.6875 0 Z M 3.859375 -1.90625 L 2.71875 -4.46875 L 1.59375 -1.90625 Z M 3.859375 -1.90625 "/></g></g></g><g fill="#000c1b" fill-opacity="1"><g transform="translate(60.33337, 17.329246)"><g><path d="M 5.28125 -5.234375 L 5.28125 0 L 4.671875 0 L 1.53125 -3.90625 L 1.53125 0 L 0.78125 0 L 0.78125 -5.234375 L 1.390625 -5.234375 L 4.53125 -1.328125 L 4.53125 -5.234375 Z M 5.28125 -5.234375 "/></g></g></g><g fill="#000c1b" fill-opacity="1"><g transform="translate(68.247073, 17.329246)"><g><path d="M 3.125 0.0625 C 2.601562 0.0625 2.128906 -0.0507812 1.703125 -0.28125 C 1.285156 -0.519531 0.957031 -0.84375 0.71875 -1.25 C 0.476562 -1.65625 0.359375 -2.109375 0.359375 -2.609375 C 0.359375 -3.117188 0.476562 -3.578125 0.71875 -3.984375 C 0.957031 -4.390625 1.285156 -4.707031 1.703125 -4.9375 C 2.128906 -5.164062 2.601562 -5.28125 3.125 -5.28125 C 3.53125 -5.28125 3.898438 -5.210938 4.234375 -5.078125 C 4.578125 -4.941406 4.867188 -4.738281 5.109375 -4.46875 L 4.625 -4 C 4.238281 -4.414062 3.75 -4.625 3.15625 -4.625 C 2.769531 -4.625 2.421875 -4.535156 2.109375 -4.359375 C 1.796875 -4.179688 1.550781 -3.941406 1.375 -3.640625 C 1.195312 -3.335938 1.109375 -2.992188 1.109375 -2.609375 C 1.109375 -2.234375 1.195312 -1.890625 1.375 -1.578125 C 1.550781 -1.273438 1.796875 -1.035156 2.109375 -0.859375 C 2.421875 -0.691406 2.769531 -0.609375 3.15625 -0.609375 C 3.738281 -0.609375 4.226562 -0.816406 4.625 -1.234375 L 5.109375 -0.765625 C 4.867188 -0.492188 4.578125 -0.285156 4.234375 -0.140625 C 3.898438 -0.00390625 3.53125 0.0625 3.125 0.0625 Z M 3.125 0.0625 "/></g></g></g><g fill="#000c1b" fill-opacity="1"><g transform="translate(75.496321, 17.329246)"><g><path d="M 4.578125 -0.65625 L 4.578125 0 L 0.78125 0 L 0.78125 -5.234375 L 4.46875 -5.234375 L 4.46875 -4.578125 L 1.53125 -4.578125 L 1.53125 -2.96875 L 4.15625 -2.96875 L 4.15625 -2.34375 L 1.53125 -2.34375 L 1.53125 -0.65625 Z M 4.578125 -0.65625 "/></g></g></g><g fill="#000c1b" fill-opacity="1"><g transform="translate(82.349885, 17.329246)"><g/></g></g><g fill="#000c1b" fill-opacity="1"><g transform="translate(86.209678, 17.329246)"><g><path d="M 4.578125 -0.65625 L 4.578125 0 L 0.78125 0 L 0.78125 -5.234375 L 4.46875 -5.234375 L 4.46875 -4.578125 L 1.53125 -4.578125 L 1.53125 -2.96875 L 4.15625 -2.96875 L 4.15625 -2.34375 L 1.53125 -2.34375 L 1.53125 -0.65625 Z M 4.578125 -0.65625 "/></g></g></g><g fill="#000c1b" fill-opacity="1"><g transform="translate(93.063242, 17.329246)"><g><path d="M 5.328125 -5.234375 L 3.03125 0 L 2.296875 0 L 0 -5.234375 L 0.796875 -5.234375 L 2.6875 -0.9375 L 4.578125 -5.234375 Z M 5.328125 -5.234375 "/></g></g></g><g fill="#000c1b" fill-opacity="1"><g transform="translate(100.230374, 17.329246)"><g><path d="M 4.109375 -1.3125 L 1.34375 -1.3125 L 0.765625 0 L 0 0 L 2.359375 -5.234375 L 3.09375 -5.234375 L 5.46875 0 L 4.6875 0 Z M 3.859375 -1.90625 L 2.71875 -4.46875 L 1.59375 -1.90625 Z M 3.859375 -1.90625 "/></g></g></g><g fill="#000c1b" fill-opacity="1"><g transform="translate(107.546815, 17.329246)"><g><path d="M 0.78125 -5.234375 L 1.53125 -5.234375 L 1.53125 -0.65625 L 4.359375 -0.65625 L 4.359375 0 L 0.78125 0 Z M 0.78125 -5.234375 "/></g></g></g><g fill="#000c1b" fill-opacity="1"><g transform="translate(113.832982, 17.329246)"><g><path d="M 2.953125 0.0625 C 2.253906 0.0625 1.707031 -0.132812 1.3125 -0.53125 C 0.925781 -0.9375 0.734375 -1.507812 0.734375 -2.25 L 0.734375 -5.234375 L 1.484375 -5.234375 L 1.484375 -2.28125 C 1.484375 -1.164062 1.972656 -0.609375 2.953125 -0.609375 C 3.429688 -0.609375 3.796875 -0.742188 4.046875 -1.015625 C 4.304688 -1.296875 4.4375 -1.71875 4.4375 -2.28125 L 4.4375 -5.234375 L 5.15625 -5.234375 L 5.15625 -2.25 C 5.15625 -1.5 4.960938 -0.925781 4.578125 -0.53125 C 4.191406 -0.132812 3.648438 0.0625 2.953125 0.0625 Z M 2.953125 0.0625 "/></g></g></g><g fill="#000c1b" fill-opacity="1"><g transform="translate(121.589905, 17.329246)"><g><path d="M 4.109375 -1.3125 L 1.34375 -1.3125 L 0.765625 0 L 0 0 L 2.359375 -5.234375 L 3.09375 -5.234375 L 5.46875 0 L 4.6875 0 Z M 3.859375 -1.90625 L 2.71875 -4.46875 L 1.59375 -1.90625 Z M 3.859375 -1.90625 "/></g></g></g><g fill="#000c1b" fill-opacity="1"><g transform="translate(128.906346, 17.329246)"><g><path d="M 1.828125 -4.578125 L 0.03125 -4.578125 L 0.03125 -5.234375 L 4.359375 -5.234375 L 4.359375 -4.578125 L 2.5625 -4.578125 L 2.5625 0 L 1.828125 0 Z M 1.828125 -4.578125 "/></g></g></g><g fill="#000c1b" fill-opacity="1"><g transform="translate(135.140254, 17.329246)"><g><path d="M 0.78125 -5.234375 L 1.53125 -5.234375 L 1.53125 0 L 0.78125 0 Z M 0.78125 -5.234375 "/></g></g></g><g fill="#000c1b" fill-opacity="1"><g transform="translate(139.306144, 17.329246)"><g><path d="M 3.140625 0.0625 C 2.617188 0.0625 2.144531 -0.0507812 1.71875 -0.28125 C 1.289062 -0.519531 0.957031 -0.84375 0.71875 -1.25 C 0.476562 -1.65625 0.359375 -2.109375 0.359375 -2.609375 C 0.359375 -3.117188 0.476562 -3.578125 0.71875 -3.984375 C 0.957031 -4.390625 1.289062 -4.707031 1.71875 -4.9375 C 2.144531 -5.164062 2.617188 -5.28125 3.140625 -5.28125 C 3.660156 -5.28125 4.132812 -5.164062 4.5625 -4.9375 C 4.988281 -4.707031 5.320312 -4.390625 5.5625 -3.984375 C 5.800781 -3.578125 5.921875 -3.117188 5.921875 -2.609375 C 5.921875 -2.109375 5.800781 -1.65625 5.5625 -1.25 C 5.320312 -0.84375 4.988281 -0.519531 4.5625 -0.28125 C 4.132812 -0.0507812 3.660156 0.0625 3.140625 0.0625 Z M 3.140625 -0.609375 C 3.523438 -0.609375 3.867188 -0.691406 4.171875 -0.859375 C 4.484375 -1.035156 4.726562 -1.273438 4.90625 -1.578125 C 5.082031 -1.890625 5.171875 -2.234375 5.171875 -2.609375 C 5.171875 -2.992188 5.082031 -3.335938 4.90625 -3.640625 C 4.726562 -3.941406 4.484375 -4.179688 4.171875 -4.359375 C 3.867188 -4.535156 3.523438 -4.625 3.140625 -4.625 C 2.753906 -4.625 2.40625 -4.535156 2.09375 -4.359375 C 1.789062 -4.179688 1.550781 -3.941406 1.375 -3.640625 C 1.195312 -3.335938 1.109375 -2.992188 1.109375 -2.609375 C 1.109375 -2.234375 1.195312 -1.890625 1.375 -1.578125 C 1.550781 -1.273438 1.789062 -1.035156 2.09375 -0.859375 C 2.40625 -0.691406 2.753906 -0.609375 3.140625 -0.609375 Z M 3.140625 -0.609375 "/></g></g></g><g fill="#000c1b" fill-opacity="1"><g transform="translate(147.428895, 17.329246)"><g><path d="M 5.28125 -5.234375 L 5.28125 0 L 4.671875 0 L 1.53125 -3.90625 L 1.53125 0 L 0.78125 0 L 0.78125 -5.234375 L 1.390625 -5.234375 L 4.53125 -1.328125 L 4.53125 -5.234375 Z M 5.28125 -5.234375 "/></g></g></g><g fill="#000c1b" fill-opacity="1"><g transform="translate(155.34742, 17.329246)"><g/></g></g><g fill="#000c1b" fill-opacity="1"><g transform="translate(0.667025, 27.28354)"><g><path d="M 4.609375 0.078125 L 3.90625 -0.609375 C 3.445312 -0.160156 2.867188 0.0625 2.171875 0.0625 C 1.816406 0.0625 1.5 0.00390625 1.21875 -0.109375 C 0.945312 -0.222656 0.734375 -0.382812 0.578125 -0.59375 C 0.421875 -0.800781 0.34375 -1.035156 0.34375 -1.296875 C 0.34375 -1.617188 0.4375 -1.898438 0.625 -2.140625 C 0.820312 -2.390625 1.148438 -2.644531 1.609375 -2.90625 C 1.378906 -3.132812 1.21875 -3.335938 1.125 -3.515625 C 1.03125 -3.703125 0.984375 -3.894531 0.984375 -4.09375 C 0.984375 -4.445312 1.109375 -4.726562 1.359375 -4.9375 C 1.617188 -5.15625 1.960938 -5.265625 2.390625 -5.265625 C 2.785156 -5.265625 3.097656 -5.164062 3.328125 -4.96875 C 3.566406 -4.78125 3.6875 -4.519531 3.6875 -4.1875 C 3.6875 -3.914062 3.597656 -3.675781 3.421875 -3.46875 C 3.253906 -3.257812 2.972656 -3.039062 2.578125 -2.8125 L 3.875 -1.53125 C 4.019531 -1.8125 4.125 -2.128906 4.1875 -2.484375 L 4.765625 -2.296875 C 4.671875 -1.835938 4.519531 -1.4375 4.3125 -1.09375 L 5.015625 -0.390625 Z M 2.390625 -4.75 C 2.148438 -4.75 1.960938 -4.691406 1.828125 -4.578125 C 1.703125 -4.460938 1.640625 -4.304688 1.640625 -4.109375 C 1.640625 -3.972656 1.675781 -3.84375 1.75 -3.71875 C 1.820312 -3.601562 1.960938 -3.4375 2.171875 -3.21875 C 2.515625 -3.414062 2.75 -3.582031 2.875 -3.71875 C 3.007812 -3.851562 3.078125 -4.003906 3.078125 -4.171875 C 3.078125 -4.347656 3.015625 -4.488281 2.890625 -4.59375 C 2.773438 -4.695312 2.609375 -4.75 2.390625 -4.75 Z M 2.203125 -0.53125 C 2.722656 -0.53125 3.148438 -0.695312 3.484375 -1.03125 L 2 -2.515625 C 1.644531 -2.304688 1.394531 -2.117188 1.25 -1.953125 C 1.101562 -1.785156 1.03125 -1.59375 1.03125 -1.375 C 1.03125 -1.125 1.140625 -0.921875 1.359375 -0.765625 C 1.578125 -0.609375 1.859375 -0.53125 2.203125 -0.53125 Z M 2.203125 -0.53125 "/></g></g></g><g fill="#000c1b" fill-opacity="1"><g transform="translate(7.640041, 27.28354)"><g/></g></g><g fill="#000c1b" fill-opacity="1"><g transform="translate(11.499834, 27.28354)"><g><path d="M 3.125 0.0625 C 2.601562 0.0625 2.128906 -0.0507812 1.703125 -0.28125 C 1.285156 -0.519531 0.957031 -0.84375 0.71875 -1.25 C 0.476562 -1.65625 0.359375 -2.109375 0.359375 -2.609375 C 0.359375 -3.117188 0.476562 -3.578125 0.71875 -3.984375 C 0.957031 -4.390625 1.285156 -4.707031 1.703125 -4.9375 C 2.128906 -5.164062 2.601562 -5.28125 3.125 -5.28125 C 3.53125 -5.28125 3.898438 -5.210938 4.234375 -5.078125 C 4.578125 -4.941406 4.867188 -4.738281 5.109375 -4.46875 L 4.625 -4 C 4.238281 -4.414062 3.75 -4.625 3.15625 -4.625 C 2.769531 -4.625 2.421875 -4.535156 2.109375 -4.359375 C 1.796875 -4.179688 1.550781 -3.941406 1.375 -3.640625 C 1.195312 -3.335938 1.109375 -2.992188 1.109375 -2.609375 C 1.109375 -2.234375 1.195312 -1.890625 1.375 -1.578125 C 1.550781 -1.273438 1.796875 -1.035156 2.109375 -0.859375 C 2.421875 -0.691406 2.769531 -0.609375 3.15625 -0.609375 C 3.738281 -0.609375 4.226562 -0.816406 4.625 -1.234375 L 5.109375 -0.765625 C 4.867188 -0.492188 4.578125 -0.285156 4.234375 -0.140625 C 3.898438 -0.00390625 3.53125 0.0625 3.125 0.0625 Z M 3.125 0.0625 "/></g></g></g><g fill="#000c1b" fill-opacity="1"><g transform="translate(18.749082, 27.28354)"><g><path d="M 3.140625 0.0625 C 2.617188 0.0625 2.144531 -0.0507812 1.71875 -0.28125 C 1.289062 -0.519531 0.957031 -0.84375 0.71875 -1.25 C 0.476562 -1.65625 0.359375 -2.109375 0.359375 -2.609375 C 0.359375 -3.117188 0.476562 -3.578125 0.71875 -3.984375 C 0.957031 -4.390625 1.289062 -4.707031 1.71875 -4.9375 C 2.144531 -5.164062 2.617188 -5.28125 3.140625 -5.28125 C 3.660156 -5.28125 4.132812 -5.164062 4.5625 -4.9375 C 4.988281 -4.707031 5.320312 -4.390625 5.5625 -3.984375 C 5.800781 -3.578125 5.921875 -3.117188 5.921875 -2.609375 C 5.921875 -2.109375 5.800781 -1.65625 5.5625 -1.25 C 5.320312 -0.84375 4.988281 -0.519531 4.5625 -0.28125 C 4.132812 -0.0507812 3.660156 0.0625 3.140625 0.0625 Z M 3.140625 -0.609375 C 3.523438 -0.609375 3.867188 -0.691406 4.171875 -0.859375 C 4.484375 -1.035156 4.726562 -1.273438 4.90625 -1.578125 C 5.082031 -1.890625 5.171875 -2.234375 5.171875 -2.609375 C 5.171875 -2.992188 5.082031 -3.335938 4.90625 -3.640625 C 4.726562 -3.941406 4.484375 -4.179688 4.171875 -4.359375 C 3.867188 -4.535156 3.523438 -4.625 3.140625 -4.625 C 2.753906 -4.625 2.40625 -4.535156 2.09375 -4.359375 C 1.789062 -4.179688 1.550781 -3.941406 1.375 -3.640625 C 1.195312 -3.335938 1.109375 -2.992188 1.109375 -2.609375 C 1.109375 -2.234375 1.195312 -1.890625 1.375 -1.578125 C 1.550781 -1.273438 1.789062 -1.035156 2.09375 -0.859375 C 2.40625 -0.691406 2.753906 -0.609375 3.140625 -0.609375 Z M 3.140625 -0.609375 "/></g></g></g><g fill="#000c1b" fill-opacity="1"><g transform="translate(26.871833, 27.28354)"><g><path d="M 5.28125 -5.234375 L 5.28125 0 L 4.671875 0 L 1.53125 -3.90625 L 1.53125 0 L 0.78125 0 L 0.78125 -5.234375 L 1.390625 -5.234375 L 4.53125 -1.328125 L 4.53125 -5.234375 Z M 5.28125 -5.234375 "/></g></g></g><g fill="#000c1b" fill-opacity="1"><g transform="translate(34.785536, 27.28354)"><g><path d="M 1.828125 -4.578125 L 0.03125 -4.578125 L 0.03125 -5.234375 L 4.359375 -5.234375 L 4.359375 -4.578125 L 2.5625 -4.578125 L 2.5625 0 L 1.828125 0 Z M 1.828125 -4.578125 "/></g></g></g><g fill="#000c1b" fill-opacity="1"><g transform="translate(41.019443, 27.28354)"><g><path d="M 4.28125 0 L 3.15625 -1.609375 C 3.007812 -1.597656 2.898438 -1.59375 2.828125 -1.59375 L 1.53125 -1.59375 L 1.53125 0 L 0.78125 0 L 0.78125 -5.234375 L 2.828125 -5.234375 C 3.503906 -5.234375 4.035156 -5.066406 4.421875 -4.734375 C 4.804688 -4.410156 5 -3.96875 5 -3.40625 C 5 -3 4.898438 -2.65625 4.703125 -2.375 C 4.503906 -2.09375 4.222656 -1.882812 3.859375 -1.75 L 5.09375 0 Z M 2.796875 -2.21875 C 3.273438 -2.21875 3.632812 -2.320312 3.875 -2.53125 C 4.125 -2.738281 4.25 -3.03125 4.25 -3.40625 C 4.25 -3.78125 4.125 -4.066406 3.875 -4.265625 C 3.632812 -4.472656 3.273438 -4.578125 2.796875 -4.578125 L 1.53125 -4.578125 L 1.53125 -2.21875 Z M 2.796875 -2.21875 "/></g></g></g><g fill="#000c1b" fill-opacity="1"><g transform="translate(48.298557, 27.28354)"><g><path d="M 3.140625 0.0625 C 2.617188 0.0625 2.144531 -0.0507812 1.71875 -0.28125 C 1.289062 -0.519531 0.957031 -0.84375 0.71875 -1.25 C 0.476562 -1.65625 0.359375 -2.109375 0.359375 -2.609375 C 0.359375 -3.117188 0.476562 -3.578125 0.71875 -3.984375 C 0.957031 -4.390625 1.289062 -4.707031 1.71875 -4.9375 C 2.144531 -5.164062 2.617188 -5.28125 3.140625 -5.28125 C 3.660156 -5.28125 4.132812 -5.164062 4.5625 -4.9375 C 4.988281 -4.707031 5.320312 -4.390625 5.5625 -3.984375 C 5.800781 -3.578125 5.921875 -3.117188 5.921875 -2.609375 C 5.921875 -2.109375 5.800781 -1.65625 5.5625 -1.25 C 5.320312 -0.84375 4.988281 -0.519531 4.5625 -0.28125 C 4.132812 -0.0507812 3.660156 0.0625 3.140625 0.0625 Z M 3.140625 -0.609375 C 3.523438 -0.609375 3.867188 -0.691406 4.171875 -0.859375 C 4.484375 -1.035156 4.726562 -1.273438 4.90625 -1.578125 C 5.082031 -1.890625 5.171875 -2.234375 5.171875 -2.609375 C 5.171875 -2.992188 5.082031 -3.335938 4.90625 -3.640625 C 4.726562 -3.941406 4.484375 -4.179688 4.171875 -4.359375 C 3.867188 -4.535156 3.523438 -4.625 3.140625 -4.625 C 2.753906 -4.625 2.40625 -4.535156 2.09375 -4.359375 C 1.789062 -4.179688 1.550781 -3.941406 1.375 -3.640625 C 1.195312 -3.335938 1.109375 -2.992188 1.109375 -2.609375 C 1.109375 -2.234375 1.195312 -1.890625 1.375 -1.578125 C 1.550781 -1.273438 1.789062 -1.035156 2.09375 -0.859375 C 2.40625 -0.691406 2.753906 -0.609375 3.140625 -0.609375 Z M 3.140625 -0.609375 "/></g></g></g><g fill="#000c1b" fill-opacity="1"><g transform="translate(56.421308, 27.28354)"><g><path d="M 0.78125 -5.234375 L 1.53125 -5.234375 L 1.53125 -0.65625 L 4.359375 -0.65625 L 4.359375 0 L 0.78125 0 Z M 0.78125 -5.234375 "/></g></g></g><g fill="#000c1b" fill-opacity="1"><g transform="translate(62.707476, 27.28354)"><g/></g></g><g fill="#000c1b" fill-opacity="1"><g transform="translate(66.567269, 27.28354)"><g><path d="M 1.828125 -4.578125 L 0.03125 -4.578125 L 0.03125 -5.234375 L 4.359375 -5.234375 L 4.359375 -4.578125 L 2.5625 -4.578125 L 2.5625 0 L 1.828125 0 Z M 1.828125 -4.578125 "/></g></g></g><g fill="#000c1b" fill-opacity="1"><g transform="translate(72.801176, 27.28354)"><g><path d="M 4.28125 0 L 3.15625 -1.609375 C 3.007812 -1.597656 2.898438 -1.59375 2.828125 -1.59375 L 1.53125 -1.59375 L 1.53125 0 L 0.78125 0 L 0.78125 -5.234375 L 2.828125 -5.234375 C 3.503906 -5.234375 4.035156 -5.066406 4.421875 -4.734375 C 4.804688 -4.410156 5 -3.96875 5 -3.40625 C 5 -3 4.898438 -2.65625 4.703125 -2.375 C 4.503906 -2.09375 4.222656 -1.882812 3.859375 -1.75 L 5.09375 0 Z M 2.796875 -2.21875 C 3.273438 -2.21875 3.632812 -2.320312 3.875 -2.53125 C 4.125 -2.738281 4.25 -3.03125 4.25 -3.40625 C 4.25 -3.78125 4.125 -4.066406 3.875 -4.265625 C 3.632812 -4.472656 3.273438 -4.578125 2.796875 -4.578125 L 1.53125 -4.578125 L 1.53125 -2.21875 Z M 2.796875 -2.21875 "/></g></g></g><g fill="#000c1b" fill-opacity="1"><g transform="translate(80.08029, 27.28354)"><g><path d="M 4.109375 -1.3125 L 1.34375 -1.3125 L 0.765625 0 L 0 0 L 2.359375 -5.234375 L 3.09375 -5.234375 L 5.46875 0 L 4.6875 0 Z M 3.859375 -1.90625 L 2.71875 -4.46875 L 1.59375 -1.90625 Z M 3.859375 -1.90625 "/></g></g></g><g fill="#000c1b" fill-opacity="1"><g transform="translate(87.396731, 27.28354)"><g><path d="M 3.125 0.0625 C 2.601562 0.0625 2.128906 -0.0507812 1.703125 -0.28125 C 1.285156 -0.519531 0.957031 -0.84375 0.71875 -1.25 C 0.476562 -1.65625 0.359375 -2.109375 0.359375 -2.609375 C 0.359375 -3.117188 0.476562 -3.578125 0.71875 -3.984375 C 0.957031 -4.390625 1.285156 -4.707031 1.703125 -4.9375 C 2.128906 -5.164062 2.601562 -5.28125 3.125 -5.28125 C 3.53125 -5.28125 3.898438 -5.210938 4.234375 -5.078125 C 4.578125 -4.941406 4.867188 -4.738281 5.109375 -4.46875 L 4.625 -4 C 4.238281 -4.414062 3.75 -4.625 3.15625 -4.625 C 2.769531 -4.625 2.421875 -4.535156 2.109375 -4.359375 C 1.796875 -4.179688 1.550781 -3.941406 1.375 -3.640625 C 1.195312 -3.335938 1.109375 -2.992188 1.109375 -2.609375 C 1.109375 -2.234375 1.195312 -1.890625 1.375 -1.578125 C 1.550781 -1.273438 1.796875 -1.035156 2.109375 -0.859375 C 2.421875 -0.691406 2.769531 -0.609375 3.15625 -0.609375 C 3.738281 -0.609375 4.226562 -0.816406 4.625 -1.234375 L 5.109375 -0.765625 C 4.867188 -0.492188 4.578125 -0.285156 4.234375 -0.140625 C 3.898438 -0.00390625 3.53125 0.0625 3.125 0.0625 Z M 3.125 0.0625 "/></g></g></g><g fill="#000c1b" fill-opacity="1"><g transform="translate(94.645979, 27.28354)"><g><path d="M 2.484375 -2.328125 L 1.53125 -1.359375 L 1.53125 0 L 0.78125 0 L 0.78125 -5.234375 L 1.53125 -5.234375 L 1.53125 -2.3125 L 4.375 -5.234375 L 5.21875 -5.234375 L 2.984375 -2.875 L 5.359375 0 L 4.484375 0 Z M 2.484375 -2.328125 "/></g></g></g><g fill="#000c1b" fill-opacity="1"><g transform="translate(101.865371, 27.28354)"><g><path d="M 0.78125 -5.234375 L 1.53125 -5.234375 L 1.53125 0 L 0.78125 0 Z M 0.78125 -5.234375 "/></g></g></g><g fill="#000c1b" fill-opacity="1"><g transform="translate(106.031261, 27.28354)"><g><path d="M 5.28125 -5.234375 L 5.28125 0 L 4.671875 0 L 1.53125 -3.90625 L 1.53125 0 L 0.78125 0 L 0.78125 -5.234375 L 1.390625 -5.234375 L 4.53125 -1.328125 L 4.53125 -5.234375 Z M 5.28125 -5.234375 "/></g></g></g><g fill="#000c1b" fill-opacity="1"><g transform="translate(113.944964, 27.28354)"><g><path d="M 4.40625 -2.640625 L 5.125 -2.640625 L 5.125 -0.609375 C 4.863281 -0.390625 4.5625 -0.222656 4.21875 -0.109375 C 3.875 0.00390625 3.515625 0.0625 3.140625 0.0625 C 2.617188 0.0625 2.144531 -0.0507812 1.71875 -0.28125 C 1.289062 -0.519531 0.957031 -0.84375 0.71875 -1.25 C 0.476562 -1.65625 0.359375 -2.109375 0.359375 -2.609375 C 0.359375 -3.117188 0.476562 -3.578125 0.71875 -3.984375 C 0.957031 -4.390625 1.289062 -4.707031 1.71875 -4.9375 C 2.144531 -5.164062 2.625 -5.28125 3.15625 -5.28125 C 3.570312 -5.28125 3.953125 -5.210938 4.296875 -5.078125 C 4.640625 -4.941406 4.929688 -4.742188 5.171875 -4.484375 L 4.703125 -4.015625 C 4.285156 -4.421875 3.78125 -4.625 3.1875 -4.625 C 2.789062 -4.625 2.429688 -4.535156 2.109375 -4.359375 C 1.796875 -4.191406 1.550781 -3.953125 1.375 -3.640625 C 1.195312 -3.335938 1.109375 -2.992188 1.109375 -2.609375 C 1.109375 -2.234375 1.195312 -1.890625 1.375 -1.578125 C 1.550781 -1.273438 1.796875 -1.035156 2.109375 -0.859375 C 2.429688 -0.691406 2.789062 -0.609375 3.1875 -0.609375 C 3.65625 -0.609375 4.0625 -0.71875 4.40625 -0.9375 Z M 4.40625 -2.640625 "/></g></g></g><g fill="#000c1b" fill-opacity="1"><g transform="translate(121.56004, 27.28354)"><g/></g></g><g fill="#000c1b" fill-opacity="1"><g transform="translate(125.419833, 27.28354)"><g><path d="M 4.109375 -1.3125 L 1.34375 -1.3125 L 0.765625 0 L 0 0 L 2.359375 -5.234375 L 3.09375 -5.234375 L 5.46875 0 L 4.6875 0 Z M 3.859375 -1.90625 L 2.71875 -4.46875 L 1.59375 -1.90625 Z M 3.859375 -1.90625 "/></g></g></g><g fill="#000c1b" fill-opacity="1"><g transform="translate(132.736274, 27.28354)"><g><path d="M 2.828125 -5.234375 C 3.503906 -5.234375 4.035156 -5.066406 4.421875 -4.734375 C 4.804688 -4.410156 5 -3.96875 5 -3.40625 C 5 -2.832031 4.804688 -2.382812 4.421875 -2.0625 C 4.035156 -1.738281 3.503906 -1.578125 2.828125 -1.578125 L 1.53125 -1.578125 L 1.53125 0 L 0.78125 0 L 0.78125 -5.234375 Z M 2.796875 -2.234375 C 3.273438 -2.234375 3.632812 -2.332031 3.875 -2.53125 C 4.125 -2.738281 4.25 -3.03125 4.25 -3.40625 C 4.25 -3.78125 4.125 -4.066406 3.875 -4.265625 C 3.632812 -4.472656 3.273438 -4.578125 2.796875 -4.578125 L 1.53125 -4.578125 L 1.53125 -2.234375 Z M 2.796875 -2.234375 "/></g></g></g><g fill="#000c1b" fill-opacity="1"><g transform="translate(139.97806, 27.28354)"><g><path d="M 2.828125 -5.234375 C 3.503906 -5.234375 4.035156 -5.066406 4.421875 -4.734375 C 4.804688 -4.410156 5 -3.96875 5 -3.40625 C 5 -2.832031 4.804688 -2.382812 4.421875 -2.0625 C 4.035156 -1.738281 3.503906 -1.578125 2.828125 -1.578125 L 1.53125 -1.578125 L 1.53125 0 L 0.78125 0 L 0.78125 -5.234375 Z M 2.796875 -2.234375 C 3.273438 -2.234375 3.632812 -2.332031 3.875 -2.53125 C 4.125 -2.738281 4.25 -3.03125 4.25 -3.40625 C 4.25 -3.78125 4.125 -4.066406 3.875 -4.265625 C 3.632812 -4.472656 3.273438 -4.578125 2.796875 -4.578125 L 1.53125 -4.578125 L 1.53125 -2.234375 Z M 2.796875 -2.234375 "/></g></g></g></g></g></g></g></g></svg>